<mxfile modified="2023-08-23T21:17:02.287Z" host="Electron" agent="Mozilla/5.0 (Windows NT 10.0; Win64; x64) AppleWebKit/537.36 (KHTML, like Gecko) draw.io/21.3.7 Chrome/112.0.5615.204 Electron/24.5.0 Safari/537.36" etag="jqqIqoxFPq61HXLc8vdd" version="21.3.7" type="device">
  <diagram id="Ht1M8jgEwFfnCIfOTk4-" name="Page-1">
    <mxGraphModel dx="1434" dy="878" grid="1" gridSize="10" guides="1" tooltips="1" connect="1" arrows="1" fold="1" page="1" pageScale="1" pageWidth="1169" pageHeight="827" math="0" shadow="0">
      <root>
        <mxCell id="0" />
        <mxCell id="1" parent="0" />
        <mxCell id="Ac5xnxJSIRuw5mqLSZAg-1" value="AWS Cloud" style="points=[[0,0],[0.25,0],[0.5,0],[0.75,0],[1,0],[1,0.25],[1,0.5],[1,0.75],[1,1],[0.75,1],[0.5,1],[0.25,1],[0,1],[0,0.75],[0,0.5],[0,0.25]];outlineConnect=0;gradientColor=none;html=1;whiteSpace=wrap;fontSize=12;fontStyle=0;container=1;pointerEvents=0;collapsible=0;recursiveResize=0;shape=mxgraph.aws4.group;grIcon=mxgraph.aws4.group_aws_cloud_alt;strokeColor=#232F3E;fillColor=none;verticalAlign=top;align=left;spacingLeft=30;fontColor=#232F3E;dashed=0;" vertex="1" parent="1">
          <mxGeometry x="210" y="10" width="670" height="510" as="geometry" />
        </mxCell>
        <mxCell id="gIayxdVTxiKMLLiaUrLT-1" value="&lt;b&gt;AWS Elemental&lt;br&gt;MediaLive&lt;/b&gt;" style="sketch=0;points=[[0,0,0],[0.25,0,0],[0.5,0,0],[0.75,0,0],[1,0,0],[0,1,0],[0.25,1,0],[0.5,1,0],[0.75,1,0],[1,1,0],[0,0.25,0],[0,0.5,0],[0,0.75,0],[1,0.25,0],[1,0.5,0],[1,0.75,0]];outlineConnect=0;fontColor=#232F3E;gradientColor=#F78E04;gradientDirection=north;fillColor=#D05C17;strokeColor=#ffffff;dashed=0;verticalLabelPosition=bottom;verticalAlign=top;align=center;html=1;fontSize=12;fontStyle=0;aspect=fixed;shape=mxgraph.aws4.resourceIcon;resIcon=mxgraph.aws4.elemental_medialive;" parent="Ac5xnxJSIRuw5mqLSZAg-1" vertex="1">
          <mxGeometry x="70" y="208" width="74" height="74" as="geometry" />
        </mxCell>
        <mxCell id="gIayxdVTxiKMLLiaUrLT-6" style="edgeStyle=orthogonalEdgeStyle;rounded=0;orthogonalLoop=1;jettySize=auto;html=1;entryX=1;entryY=0.5;entryDx=0;entryDy=0;entryPerimeter=0;" parent="Ac5xnxJSIRuw5mqLSZAg-1" target="gIayxdVTxiKMLLiaUrLT-1" edge="1">
          <mxGeometry relative="1" as="geometry">
            <mxPoint x="260" y="244.5" as="sourcePoint" />
          </mxGeometry>
        </mxCell>
        <mxCell id="UEzPUAAOIrF-is8g5C7q-121" value="&lt;b&gt;Amazon&lt;br&gt;CloudWatch&lt;/b&gt;" style="outlineConnect=0;fontColor=#232F3E;gradientColor=#F34482;gradientDirection=north;fillColor=#BC1356;strokeColor=#ffffff;dashed=0;verticalLabelPosition=bottom;verticalAlign=top;align=center;html=1;fontSize=12;fontStyle=0;aspect=fixed;shape=mxgraph.aws4.resourceIcon;resIcon=mxgraph.aws4.cloudwatch;labelBackgroundColor=#ffffff;" parent="Ac5xnxJSIRuw5mqLSZAg-1" vertex="1">
          <mxGeometry x="520" y="14" width="68" height="68" as="geometry" />
        </mxCell>
        <mxCell id="gIayxdVTxiKMLLiaUrLT-11" value="&lt;b&gt;Amazon SNS&amp;nbsp;&lt;/b&gt;" style="sketch=0;points=[[0,0,0],[0.25,0,0],[0.5,0,0],[0.75,0,0],[1,0,0],[0,1,0],[0.25,1,0],[0.5,1,0],[0.75,1,0],[1,1,0],[0,0.25,0],[0,0.5,0],[0,0.75,0],[1,0.25,0],[1,0.5,0],[1,0.75,0]];outlineConnect=0;fontColor=#232F3E;gradientColor=#FF4F8B;gradientDirection=north;fillColor=#BC1356;strokeColor=#ffffff;dashed=0;verticalLabelPosition=bottom;verticalAlign=top;align=center;html=1;fontSize=12;fontStyle=0;aspect=fixed;shape=mxgraph.aws4.resourceIcon;resIcon=mxgraph.aws4.sns;" parent="Ac5xnxJSIRuw5mqLSZAg-1" vertex="1">
          <mxGeometry x="521" y="413" width="65" height="65" as="geometry" />
        </mxCell>
        <mxCell id="Ac5xnxJSIRuw5mqLSZAg-10" value="Reoccurring&amp;nbsp;&lt;br&gt;Invocation Schedule" style="edgeStyle=orthogonalEdgeStyle;rounded=0;orthogonalLoop=1;jettySize=auto;html=1;" edge="1" parent="Ac5xnxJSIRuw5mqLSZAg-1" target="Ac5xnxJSIRuw5mqLSZAg-9">
          <mxGeometry relative="1" as="geometry">
            <mxPoint x="302" y="126.97727272727275" as="sourcePoint" />
          </mxGeometry>
        </mxCell>
        <mxCell id="Ac5xnxJSIRuw5mqLSZAg-6" value="&lt;b&gt;Amazon EventBridge&lt;br&gt;Scheduler&lt;/b&gt;" style="sketch=0;outlineConnect=0;fontColor=#232F3E;gradientColor=none;fillColor=#B0084D;strokeColor=none;dashed=0;verticalLabelPosition=bottom;verticalAlign=top;align=center;html=1;fontSize=12;fontStyle=0;aspect=fixed;pointerEvents=1;shape=mxgraph.aws4.eventbridge_scheduler;" vertex="1" parent="Ac5xnxJSIRuw5mqLSZAg-1">
          <mxGeometry x="253" y="4" width="90" height="90" as="geometry" />
        </mxCell>
        <mxCell id="Ac5xnxJSIRuw5mqLSZAg-7" value="&lt;b&gt;Amazon&lt;br&gt;Rekognition&lt;/b&gt;" style="sketch=0;outlineConnect=0;fontColor=#232F3E;gradientColor=none;fillColor=#067F68;strokeColor=none;dashed=0;verticalLabelPosition=bottom;verticalAlign=top;align=center;html=1;fontSize=12;fontStyle=0;aspect=fixed;pointerEvents=1;shape=mxgraph.aws4.rekognition_image;" vertex="1" parent="Ac5xnxJSIRuw5mqLSZAg-1">
          <mxGeometry x="262.5" y="396" width="78.97" height="80" as="geometry" />
        </mxCell>
        <mxCell id="Ac5xnxJSIRuw5mqLSZAg-11" style="edgeStyle=orthogonalEdgeStyle;rounded=0;orthogonalLoop=1;jettySize=auto;html=1;startArrow=classic;startFill=1;" edge="1" parent="Ac5xnxJSIRuw5mqLSZAg-1" source="Ac5xnxJSIRuw5mqLSZAg-9" target="Ac5xnxJSIRuw5mqLSZAg-7">
          <mxGeometry relative="1" as="geometry" />
        </mxCell>
        <mxCell id="Ac5xnxJSIRuw5mqLSZAg-12" value="Perform Automated Image &lt;br&gt;Recognition &amp;amp;&lt;br&gt;Analysis" style="edgeLabel;html=1;align=center;verticalAlign=middle;resizable=0;points=[];" vertex="1" connectable="0" parent="Ac5xnxJSIRuw5mqLSZAg-11">
          <mxGeometry x="0.2186" y="2" relative="1" as="geometry">
            <mxPoint as="offset" />
          </mxGeometry>
        </mxCell>
        <mxCell id="Ac5xnxJSIRuw5mqLSZAg-17" style="edgeStyle=orthogonalEdgeStyle;rounded=0;orthogonalLoop=1;jettySize=auto;html=1;" edge="1" parent="Ac5xnxJSIRuw5mqLSZAg-1" source="Ac5xnxJSIRuw5mqLSZAg-9" target="Ac5xnxJSIRuw5mqLSZAg-13">
          <mxGeometry relative="1" as="geometry" />
        </mxCell>
        <mxCell id="Ac5xnxJSIRuw5mqLSZAg-9" value="&lt;b&gt;Amazon Lamba&lt;/b&gt;" style="sketch=0;outlineConnect=0;fontColor=#232F3E;gradientColor=none;fillColor=#D45B07;strokeColor=none;dashed=0;verticalLabelPosition=bottom;verticalAlign=top;align=center;html=1;fontSize=12;fontStyle=0;aspect=fixed;pointerEvents=1;shape=mxgraph.aws4.lambda_function;" vertex="1" parent="Ac5xnxJSIRuw5mqLSZAg-1">
          <mxGeometry x="261" y="210" width="82" height="82" as="geometry" />
        </mxCell>
        <mxCell id="Ac5xnxJSIRuw5mqLSZAg-18" value="&lt;b&gt;No&lt;/b&gt;&lt;br&gt;&lt;br&gt;Automate Response" style="edgeStyle=orthogonalEdgeStyle;rounded=0;orthogonalLoop=1;jettySize=auto;html=1;" edge="1" parent="Ac5xnxJSIRuw5mqLSZAg-1" source="Ac5xnxJSIRuw5mqLSZAg-13" target="gIayxdVTxiKMLLiaUrLT-11">
          <mxGeometry relative="1" as="geometry" />
        </mxCell>
        <mxCell id="Ac5xnxJSIRuw5mqLSZAg-19" style="edgeStyle=orthogonalEdgeStyle;rounded=0;orthogonalLoop=1;jettySize=auto;html=1;" edge="1" parent="Ac5xnxJSIRuw5mqLSZAg-1" source="Ac5xnxJSIRuw5mqLSZAg-13">
          <mxGeometry relative="1" as="geometry">
            <mxPoint x="554" y="120" as="targetPoint" />
          </mxGeometry>
        </mxCell>
        <mxCell id="Ac5xnxJSIRuw5mqLSZAg-20" value="&lt;b&gt;Yes&lt;/b&gt;&lt;br&gt;&lt;br&gt;Optionally Log &lt;br&gt;Content Labels" style="edgeLabel;html=1;align=center;verticalAlign=middle;resizable=0;points=[];" vertex="1" connectable="0" parent="Ac5xnxJSIRuw5mqLSZAg-19">
          <mxGeometry x="-0.2381" relative="1" as="geometry">
            <mxPoint as="offset" />
          </mxGeometry>
        </mxCell>
        <mxCell id="Ac5xnxJSIRuw5mqLSZAg-13" value="&lt;b&gt;Authorized&lt;br&gt;Content?&lt;/b&gt;" style="strokeWidth=2;html=1;shape=mxgraph.flowchart.decision;whiteSpace=wrap;" vertex="1" parent="Ac5xnxJSIRuw5mqLSZAg-1">
          <mxGeometry x="509" y="204" width="91" height="94" as="geometry" />
        </mxCell>
        <mxCell id="Ac5xnxJSIRuw5mqLSZAg-4" value="Input Video" style="edgeStyle=orthogonalEdgeStyle;rounded=0;orthogonalLoop=1;jettySize=auto;html=1;" edge="1" parent="1" source="Ac5xnxJSIRuw5mqLSZAg-3" target="gIayxdVTxiKMLLiaUrLT-1">
          <mxGeometry relative="1" as="geometry" />
        </mxCell>
        <mxCell id="Ac5xnxJSIRuw5mqLSZAg-3" value="Open Broadcaster SoftwareÂ " style="shape=image;verticalLabelPosition=bottom;labelBackgroundColor=default;verticalAlign=top;aspect=fixed;imageAspect=0;image=data:image/png,iVBORw0KGgoAAAANSUhEUgAAAoAAAAFoCAYAAADHMkpRAAAACXBIWXMAAAsTAAALEwEAmpwYAAAKT2lDQ1BQaG90b3Nob3AgSUNDIHByb2ZpbGUAAHjanVNnVFPpFj333vRCS4iAlEtvUhUIIFJCi4AUkSYqIQkQSoghodkVUcERRUUEG8igiAOOjoCMFVEsDIoK2AfkIaKOg6OIisr74Xuja9a89+bN/rXXPues852zzwfACAyWSDNRNYAMqUIeEeCDx8TG4eQuQIEKJHAAEAizZCFz/SMBAPh+PDwrIsAHvgABeNMLCADATZvAMByH/w/qQplcAYCEAcB0kThLCIAUAEB6jkKmAEBGAYCdmCZTAKAEAGDLY2LjAFAtAGAnf+bTAICd+Jl7AQBblCEVAaCRACATZYhEAGg7AKzPVopFAFgwABRmS8Q5ANgtADBJV2ZIALC3AMDOEAuyAAgMADBRiIUpAAR7AGDIIyN4AISZABRG8lc88SuuEOcqAAB4mbI8uSQ5RYFbCC1xB1dXLh4ozkkXKxQ2YQJhmkAuwnmZGTKBNA/g88wAAKCRFRHgg/P9eM4Ors7ONo62Dl8t6r8G/yJiYuP+5c+rcEAAAOF0ftH+LC+zGoA7BoBt/qIl7gRoXgugdfeLZrIPQLUAoOnaV/Nw+H48PEWhkLnZ2eXk5NhKxEJbYcpXff5nwl/AV/1s+X48/Pf14L7iJIEyXYFHBPjgwsz0TKUcz5IJhGLc5o9H/LcL//wd0yLESWK5WCoU41EScY5EmozzMqUiiUKSKcUl0v9k4t8s+wM+3zUAsGo+AXuRLahdYwP2SycQWHTA4vcAAPK7b8HUKAgDgGiD4c93/+8//UegJQCAZkmScQAAXkQkLlTKsz/HCAAARKCBKrBBG/TBGCzABhzBBdzBC/xgNoRCJMTCQhBCCmSAHHJgKayCQiiGzbAdKmAv1EAdNMBRaIaTcA4uwlW4Dj1wD/phCJ7BKLyBCQRByAgTYSHaiAFiilgjjggXmYX4IcFIBBKLJCDJiBRRIkuRNUgxUopUIFVIHfI9cgI5h1xGupE7yAAygvyGvEcxlIGyUT3UDLVDuag3GoRGogvQZHQxmo8WoJvQcrQaPYw2oefQq2gP2o8+Q8cwwOgYBzPEbDAuxsNCsTgsCZNjy7EirAyrxhqwVqwDu4n1Y8+xdwQSgUXACTYEd0IgYR5BSFhMWE7YSKggHCQ0EdoJNwkDhFHCJyKTqEu0JroR+cQYYjIxh1hILCPWEo8TLxB7iEPENyQSiUMyJ7mQAkmxpFTSEtJG0m5SI+ksqZs0SBojk8naZGuyBzmULCAryIXkneTD5DPkG+Qh8lsKnWJAcaT4U+IoUspqShnlEOU05QZlmDJBVaOaUt2ooVQRNY9aQq2htlKvUYeoEzR1mjnNgxZJS6WtopXTGmgXaPdpr+h0uhHdlR5Ol9BX0svpR+iX6AP0dwwNhhWDx4hnKBmbGAcYZxl3GK+YTKYZ04sZx1QwNzHrmOeZD5lvVVgqtip8FZHKCpVKlSaVGyovVKmqpqreqgtV81XLVI+pXlN9rkZVM1PjqQnUlqtVqp1Q61MbU2epO6iHqmeob1Q/pH5Z/YkGWcNMw09DpFGgsV/jvMYgC2MZs3gsIWsNq4Z1gTXEJrHN2Xx2KruY/R27iz2qqaE5QzNKM1ezUvOUZj8H45hx+Jx0TgnnKKeX836K3hTvKeIpG6Y0TLkxZVxrqpaXllirSKtRq0frvTau7aedpr1Fu1n7gQ5Bx0onXCdHZ4/OBZ3nU9lT3acKpxZNPTr1ri6qa6UbobtEd79up+6Ynr5egJ5Mb6feeb3n+hx9L/1U/W36p/VHDFgGswwkBtsMzhg8xTVxbzwdL8fb8VFDXcNAQ6VhlWGX4YSRudE8o9VGjUYPjGnGXOMk423GbcajJgYmISZLTepN7ppSTbmmKaY7TDtMx83MzaLN1pk1mz0x1zLnm+eb15vft2BaeFostqi2uGVJsuRaplnutrxuhVo5WaVYVVpds0atna0l1rutu6cRp7lOk06rntZnw7Dxtsm2qbcZsOXYBtuutm22fWFnYhdnt8Wuw+6TvZN9un2N/T0HDYfZDqsdWh1+c7RyFDpWOt6azpzuP33F9JbpL2dYzxDP2DPjthPLKcRpnVOb00dnF2e5c4PziIuJS4LLLpc+Lpsbxt3IveRKdPVxXeF60vWdm7Obwu2o26/uNu5p7ofcn8w0nymeWTNz0MPIQ+BR5dE/C5+VMGvfrH5PQ0+BZ7XnIy9jL5FXrdewt6V3qvdh7xc+9j5yn+M+4zw33jLeWV/MN8C3yLfLT8Nvnl+F30N/I/9k/3r/0QCngCUBZwOJgUGBWwL7+Hp8Ib+OPzrbZfay2e1BjKC5QRVBj4KtguXBrSFoyOyQrSH355jOkc5pDoVQfujW0Adh5mGLw34MJ4WHhVeGP45wiFga0TGXNXfR3ENz30T6RJZE3ptnMU85ry1KNSo+qi5qPNo3ujS6P8YuZlnM1VidWElsSxw5LiquNm5svt/87fOH4p3iC+N7F5gvyF1weaHOwvSFpxapLhIsOpZATIhOOJTwQRAqqBaMJfITdyWOCnnCHcJnIi/RNtGI2ENcKh5O8kgqTXqS7JG8NXkkxTOlLOW5hCepkLxMDUzdmzqeFpp2IG0yPTq9MYOSkZBxQqohTZO2Z+pn5mZ2y6xlhbL+xW6Lty8elQfJa7OQrAVZLQq2QqboVFoo1yoHsmdlV2a/zYnKOZarnivN7cyzytuQN5zvn//tEsIS4ZK2pYZLVy0dWOa9rGo5sjxxedsK4xUFK4ZWBqw8uIq2Km3VT6vtV5eufr0mek1rgV7ByoLBtQFr6wtVCuWFfevc1+1dT1gvWd+1YfqGnRs+FYmKrhTbF5cVf9go3HjlG4dvyr+Z3JS0qavEuWTPZtJm6ebeLZ5bDpaql+aXDm4N2dq0Dd9WtO319kXbL5fNKNu7g7ZDuaO/PLi8ZafJzs07P1SkVPRU+lQ27tLdtWHX+G7R7ht7vPY07NXbW7z3/T7JvttVAVVN1WbVZftJ+7P3P66Jqun4lvttXa1ObXHtxwPSA/0HIw6217nU1R3SPVRSj9Yr60cOxx++/p3vdy0NNg1VjZzG4iNwRHnk6fcJ3/ceDTradox7rOEH0x92HWcdL2pCmvKaRptTmvtbYlu6T8w+0dbq3nr8R9sfD5w0PFl5SvNUyWna6YLTk2fyz4ydlZ19fi753GDborZ752PO32oPb++6EHTh0kX/i+c7vDvOXPK4dPKy2+UTV7hXmq86X23qdOo8/pPTT8e7nLuarrlca7nuer21e2b36RueN87d9L158Rb/1tWeOT3dvfN6b/fF9/XfFt1+cif9zsu72Xcn7q28T7xf9EDtQdlD3YfVP1v+3Njv3H9qwHeg89HcR/cGhYPP/pH1jw9DBY+Zj8uGDYbrnjg+OTniP3L96fynQ89kzyaeF/6i/suuFxYvfvjV69fO0ZjRoZfyl5O/bXyl/erA6xmv28bCxh6+yXgzMV70VvvtwXfcdx3vo98PT+R8IH8o/2j5sfVT0Kf7kxmTk/8EA5jz/GMzLdsAAAAgY0hSTQAAeiUAAICDAAD5/wAAgOkAAHUwAADqYAAAOpgAABdvkl/FRgAAmvFJREFUeNrsnXdgFGX6x7/vzPb0hCQkISSUgAjICQqoWLBhORuiYu+eXU89y3mevfdyP9HTw3acFRULoohdULEAKkhNCOm9J7s78/7+2JLpW1JIyPO5w2x2Z2ZnZie7n33e93keNmLciRwEQRAEQRDEkEGgU0AQBEEQBEECSBAEQRAEQZAAEgRBEARBECSABEEQBEEQBAkgQRAEQRAEQQJIEARBEARBkAASBEEQBEEQJIAEQRAEQRAECSBBEARBEARBAkgQBEEQBEGQABIEQRAEQRAkgARBEARBEAQJIEEQBEEQBEECSBAEQRAEQQJIEARBEARBkAASBEEQBEEQJIAEQRAEQRAECSBBEARBEARBAkgQBEEQBEGQABIEQRAEQRAkgARBEARBEAQJIEEQBEEQBEECSBAEQRAEQZAAEgRBEARBECSABEEQBEEQBAkgQRAEQRAEQQJIEARBEARBkAASBEEQBEGQABIEQRAEQRAkgARBEARBEAQJIEEQBEEQBEECSBAEQRAEQZAAEgRBEARBECSABEEQBEEQBAkgQRAEQRAEQQJIEARBEARB9Bk2OgUEQRAE0c20KQUoGpMX/n3TljL8uKaETgxBAkgQBEEQ/c38ufvGvE608jZn9mTMP/lw7DvzT/B43LrH29s78O2qX/DPO59HaXkjvRjEoIeNGHcip9NAEARBDHRK/3gz5nVeemUJbr7zJctlLj53Dm6+8cKottfe3oErr3kAyz5bRy8IMaihOYAEQRDEkCU/NxV/vfKMqJf3eNz4x40X0IkjBj00BEz0CnNmT8afphQhOSkRSUkeFI0tMFzup5/XB77J76jCtuJy+hbdSx9g+83cHZMnjgUAjBtXgMQEj265TZtL0NLSPqjP/VA6VqJ/OO3kgw2HfK0oLMzD/Ln74tXF39IJJEgAiaHFtCkFmHvsgZi65wRMmlgU9XraZdvbO7D2141Y/eNvWPT6il6fW3P3LWfhrDOO7dVttrd3YOu2HSrRWPfbZnyz6vd+mxsUOv8HzJqGwsK8uM49APz62yZs2lyCb1etHbAfZkPpWIn+Jy83K671Jk8cS9cRMaihOYBETMyfuy/OPuOYmKQvFlZ9vwZvvf1pr72x9oUAWlFcXIaf16zHB0u/6ZOoU1+e/9Ak9+++/xULFi7bpa+1gXasRHT0xRzApYvvjesai2ZuIUEMZCgCSAwI8Qsxc/oUzJw+BWefcQz+cfuCQVd6obAwD4WFeTjhuEPx62+b8OIr7/WKzObnpuJvV8/HCccd2mf77vG4cejB++DQg/fBReefiKXLvsaC55f0e8bjUDpWYudTWVXb5+9rBEECSAxK+juKBgSG8Ba9cBfeXPzJoP2WPWliER689xqceMIhuOaGJ+OWizmzJ+MfN14Q9fBnb5CZmY4j58zq93M/mI717lvOirgMRYgGPuXlNXGt19zSSiePIAEkdk3yc1Px7FM37LRvxx6PG2edcSxyczNx7iUPD9rzOHP6FCxaeDtOO/fWmCVwzuzJeOKR62OepN4bLF32db/L32A51jmzJ0f1pYgEcOCzeMkXMX/BbW/vwKLXV9DJIwY1VAaGMJW/RQtvHxBDI4cevA8WPn3toD6fhYV5WLTw9phfg3vvvGKnCFHog7E/r7fBdKzzTz6c3iR2EX5cU4Knnl4U0zqPPvEKTRcgSACJXZNFC2/v12G4oSKB0QwbhrjjlvORmZm+U/Z11fdr+nX+5WA61vzcVBx68D70JrELcf9ji3H3ff9GTU295XLFxWX4202PUOIQsUtAQ8CEjoVPXzug5E8pgXffctagHlabN/ewqJIN5syevFMl49MV3/fbcw22Y734/GPpTWIXZMHCZViwcJmqpmmI0h1V+OGnDdQPmCABJHZdLj53zoCObsybexgWL/li0L4RezxunHbywbj/scWWy+3MIcaamvp+jXAMtmM9cs4seqPYhVn22ToqHE4MCWgImAiTn5uKi84/ccAL1F23Xjyoz/Ne0yZGXGbfmX/aafvX38kfg+lYb7h67k4bqiYIguhNKAJIhLn4/GN75cOtuLgMX379I9b9tjl8X2pKEnafMAp7TpnQ4+HlSROL+rwN099uekR3X2pKEvJHZMfUkcKI4VnDLB+fP3ffuJMhlq9YiWWfrNR1JZk/d18UjByOvNysiK9BfyZ/DLZjPeiAvemNope+bCpb+oVY99tmbNpSNiSHWkPnpGDkcNXwM50bggSQ6PM3n3lzD+vRNn79bVNUxZvnz90Xl/3llB5J1IknHNKnAmi97Zdw8blz8Ncrz4hLXiIdt/ZDMVqsOhNoj8esvVp/J38MpmOdM3tyzFnxSxffG3GZz7/8wXBKwA1Xz41LOI+ce1Ov7l+0+xut8J94wiGYOX1KxC+R7y/9Iu7niYU5syfj6itO69PzbPql+9w5mDF9EqZMHh/1l+++bp9JkAASQ4x4GqJrozHR1up7dfG3+GbV7z2qMThz+hRMm1Kw074NL1i4DCkpCbj8ktMGxOvX3t4RU3LMj2tK8OOalwC8hGlTCnD26UdizmH79Wvyx2A61niLoUdzff/083rD+5OTEvu8DFM82zfbXyumTSnAXbdeHPXzFRbm4fJLTsOfjzwQV1//SPjvvLi4rNcT1NLSkvq13FV+biouPv9YzJt7WFzvuR6PO9wx6byzT8Cbiz+hLjZEXNAcQAJAz4a2YpG/EKXljbjo8vtRXFwW9/POPfbAnXrO+iM6ES3V1fVxr/vjmhJcef0CHHr0FYOivEV/Huu0KQVYuvjefu+EsysxZ/ZkLHrhrrgkq7AwD4teuAtzZk8GALS2tQ/qc3HxuXPw7usP4Kwzju2VmpehYvnLP3gyphJTBEECSIS/kcb7Dbimph7/vPP5uNYtLW/EXfc9F/d+HzBr2k4/d+3tHTGv0xPptfqgnDaloEfbGCwRhP461huunhu3uBDd8tfT7i4ejxtPPHI9pk0pGNQC+MQDF+PmGy/skySikAi+8fItyM9NpQuPIAEkouO0kw+Oe93X3vyoR+Kw7LN1WL5iZdwisLPf7OL5YKusru2TfXnsgWuGzJt/Xx5rfm4q3nj5Flx+yWk7rTPJrvLFsrda+3k8bjz2wDXYuHFwJkAsfPpanHDcoX3+PKG2kySBBAkgERW7jR8V13q91Q/zu+9/jXvdo+fM2Gnnbf7cfeNab/WPv/XJ/hQW5uHd1x/AxefO2eWv2b481v1m7h4xSYGIzCP3925rv8LCvB4nqu0s+evP2qqhtpMkgQQJIBGRsaNHxrXe2l839sqw4YKFy+IaSgWA/BHZO+Wc5eem4rK/nBLXupGkWVk+J1YyM9Nx840XYunie+MW1P5kKB3rUGL+3H37RKIHW0T27lvO2imF9QsL83DHLefThUiQABKR3yzioTcjWWt/3RjXeuPGFfTrucrPTcUNV8/Fu68/ENd5e/vd5RGluTfK20yaWIQH771mwMvRUDrWocTZZxwz5M/BtCkFOzVieejB+wyJ0QAifqgMDL1Jxb1uyfbKXtuPjRtL4ooYJCZ4+uS8GNVHS0zw9KgERXt7Bx587NWoll31/ZpeiaCE5Oiyv5zSb3XVYmUoHetQIJ56ibsil188b6dHLC86/8RBkdlP7BwoAjjEKRoTv9D0ZiHm0h1VcX/o9wWTJhbp/vVU/q685oGoh8x7ux5fqK7aT18/ixuunjugrsGhdKxDgZ3Z23kgfbHuydDvr79twkuvLMFLryzB8hUr454ik5mZTn8DhCkUASQGBI1NLbvssYXkL5YG8wsWLsNxxxzU64KbmZmOyy85DafMOwKvvfnRgIiSDbRj/WbV77pWgHMO2yeuD3SjloJaNm0p26Wu9570dm5v78Cbiz8Jzw2dPHEspu45YdBFFC+/eF6vvlfk56bijlvOj+saPGXeERQNJ0gACT3xtuL69bdNdPKiYNX3a3DfQy/F1bHksScX4bkFt/bJfoXk6M9HHoh/PfNan7bVG2zHWlreqFsm3r+TnX1e+5s5syfHPexZXFyG0869VRUlD52/nrReHEwSbPZFsbS8Eede8jDeePmWmKdLZGamY87syTF9ASWGBjQETAwIvln1e9zrDsRyB2+/uxzHn3wtTjrzzrjb1S37bB2eenpRn+5nYWEeHrz3mp3eRWAoHeuuzAGz9oxrvfb2Dlx9/SOmUyQWLFyGNxd/sktL8PIVKyNK2n0PvRTXPh195H50cRIkgMTApCflZPabufvA+xA4bD9cfvG8Hmel3v/Y4j4XIwA464xjsXTxvTtVpofSse6qJCXFl5T15uJPIn5RuvnOl1BTUz/gz0G8Evzq6x9HXObHNSVxdRLac8oEujgJEkBi12MgDrN5PG4cevA+vVKeJCRG8U4Ej5ZJE4t2egHZoXSsuyJFY+OrKrB4yRdRLff1tz8N+HMQb2mqaIdof16zPuZt9ySBjSABJIg+pae9XQcyofIkPRl6vP+xxTjtnH/0+dzLwsI8PHL/FTv1fA2lY93ViKcsU01NfdTTJH5fv22XPAexXOtl5dVx7RfVyCRIAAkVzS2t/fYmZxk5GLPrf0M964xjeySBP64pwZFzb8JTTy/q06GwmdOn7PQCskPpWHcl4ok0bdlWGvWy24rLB8UXvlhpbWuPetl466+mpiTRBUqQABI9fzOhIYX4JbA35gVOnXVRn8rRReefOCDO11A61qHKxo3RJ0ntqpmssZyDeNlZbTOJgQuVgSEGBAUjh8e1Xl/NFTOr3zZ54ljk5mZi35l/irskxdlnHNMr8xbvf2wx7n9sMW64ei5OmXcEMjPTe+34MzPTcfG5cwZMF4GhdKwEYUVPKiYQhBKKANKbSdzr9uackuSkxLjW27ptR5+cl1cXf2v47+Y7X8K5lzyMQ4++Aqu+XxPXtidNLMKc2ZN7VY6mzroIf7vpkV6dNzdj+qQBd70OpWMlCCN6UjGBIEgAiV55M4m3OK4RU/eMr0xBLHNnevu8nXTmnXFLSLylIiJJ65Fzb+o1OZoyefyAvW6H0rEShBLKXCdIAIleI94P0HjLHRgRb6un/pg7Y8WLr7zXr8IbqxzFUzMsRG8Os9KxDjwoK3RwMhDrnhIkgMQgZdPm+CRq5vQpvfJttCdZmKGeoTtTQOKht7OozfZt/zlXYfmKlXFvY7CU5xlKx0rsevTml2kz4q34QJAAErswPamtdfH5x/b4+Y875qC41x2sE6L7M4v63EsejjvKO9jK8wylY+0pvTmFI0Q8mdqxRMN7c+5sXxHP9RfLF8J4y7nEW/GBIAEkdmE+WPZd3OvOm3tYj6KA8+fuG/fw76+/bdrpE6L7Yj5OXwzNff7lDwPy2htKx9pfRBvJ7IuoU1V1XczrjB41IuplRxXmDvjzX1lV26fnIN5yLpu2lIEgSAAJFaXljXFntHo8bjz71A1xy9P115wT937/9PP6nX7ujp4zo9e3GWofNxAKFPd1hHUoHWt/sffU3aL625s5fcqAkB+Pxx31F4HBkK1dXl4T1zmINrp5wKxpMW+/vb0j6m4rBAkgMcRY/eNvca87aWIR3nj5lpiiYdOmFGDRwtt7NPk+2v6hfUV+bipOn39UXOtGSliYNLEIN994IX76+lk88cDFPZ6ftte0iXF/OehrduVj3RkZm9FIUm9M3egt+QECtTGjOZf7zvzTgH8v/fLrn+P7MnnkflG9b8YzfWTtrxvpQ44gASSMuf+xxT3qtDBz+hS8+/oDuOHquRHfxO++5SwseuGuHs2DW75i5U79Rjt/7r5YtPD2uI+hsjq6SElmZjpOOO5QvPP6w/hq2eN44oGLYx42vfuWs+KK9vR1L96hcKynnXxw3OuW7qiKa71DD97HMpo0Z/ZkzJt7WJ8cb7xJWZMmFkV877jjlvPjLr7enyz7bF1c76VzDtsv4heGs08/st+/4BO7LtQJhAizdNnXOOuM+CMDmZnpuPyS03De2Sdg67YdqiHapCQPisYWxD3fT8urr3/cp+fCrGdvbm4mxo4e2eMkjnjK1xQW5qGwMA8nHHcoHrz3GhQXl2Hz1u0oL69Bc0urapJ3akoSdp8wCrP2nRp3lHVnDrHvKsd63tknoGR7pS5bPD83FUfPmRHe76mzLtKt29jUEvfz3nvnFUh75AXV8+bnpuLi84/FvLmH9ZlIvbr4Wzx47zVxrXv5JachOSkRC55foorGTptSgBuvO6tPhqz7iq+//QknHHdoTOt4PG4sWng7Tjv3VsNo9A1Xz415myEWvb6CPuAIEkDCnJvvfAlHzpnV45poHo8bkyYW9ZrsaVm+YmWf9wTtiQhHQ28MX4ckaSDvY28L4c461ngjWx6PGw/eew2uv+accILE6FEjohKwnsxJzMxM1z1vX/09aln1/Zq4Ze2sM47FWWccG47IZmdlDMoajS/+d2lcslZYmIflHzyJZZ98g29XrQUQaJN50AF7x/36LV+xkrqHECSARGQeeOSFuL/B9wft7R34553PD+pzvLOHr6Ph1982DZlJ49Eca0NDS4+eIzMzPWaRKS1vRE1NfY8EKJ7n7Smrf/ytx9G6/pLVvuLHNSVYvmIlDj14n7i+NJxw3KFxR/u0PLXgTfpgIwyhOYCEilcXf4u3310+YPfv0SdeGfTfZgfDG/JjTy4aMtd8NMe67LN1aG/v6Pd9+/rbnwbd+bz/scU75VwNNP555/M7/TwMhi+bBAkgMYC48voF/Z4AEA1vv7scCxYuG9Tn9qVXlgz4N+S3313e50Psg/FYd0Ym5QdLvxmU5/XNxZ8M+ffR0vJG/OfFt3fa8+8KoyUECSCxE7jo8vt71Fu1L77JXnn9gkF9TpevWImb73xpQO9jcXHZoD/PfXWsn674vt/3cdln6wbkl7FILHh+SY+qCuwq3P/Y4h61J+zRF/lrHqC5fwQJIBHft9fTzr017gLRvcnb7y7HuZc8PKjP52A4huLiMpx27q1DRv5iPdYFC5ftFKn5x+0L+mwocdX3a/DSK0v65P3j2effGhT72tece8nD/S6BTz29aMhE8QkSQKKPJPCkM+/caW+67e0deOrpRYM6ItXe3oG77/v3gD+GVd+vMS0/savRk2N94JEX+n1/f1xT0idDicXFZbjmhidx850v9YlgLli4rNfmE7e3d4T3dTBGRPtLAkPvN/c/tpg+wAgSQKLn3HznS7jg4tv79Y13+YqVOO2cfwzqN7LlK1bi0KOviHneYn+e55Bkn3TmnTtF/gbbsb66+Fs89XT/J8jc/9jiXn3eUAQ0dB6+XfVLn+z3ldcv6LH4tLd3qIYzB2uC0rmXPIynnl7UZ9Hc4uIyXHnNA4N+njTRf4jJGbvfRqeBiMSW4mr897VPUVG+A7k5w5CVldFn0nTNDY/h6eeXoqKqqcfbO+TAKZiyx/h+O0/FxWVY8v7nuOSqB/HSq5+huaUz5m2EzrMgAKNH5feZDP3vtaW48rrH8OEnP++062owHus3q9bDYfNj0sSxsNvtPd5eTU09nvnPe1E9b0X5Duw5ZTwSEuIv5Pz2u8tx7U1PqSS4s70Vx/75oKjWX7P2D6z4MvqpIe9+sBLD0lxx/R0WF5fhwsvuxlerNqrei0aNTMeE3Ub3yv5OmpCPww+NvVzLo0+9Hte18+57n6FgZGavXe81NfVY+NLbOP/yR7GluJo+rIioYSPGncjpNBCxMm1KAeYeeyCm7jmhRzW72ts7sPbXjVj9429Y9PqKXo9C3X3LWX1W1DkUvfrp5/Uo3VGFH37a0OsZvvm5qTjt5IOx2/hRmDJ5fI9quinP9UCMrA62Y502pQCXXzwP+878U8ydNWpq6vH1tz/h21VrdV1CojlPF59/bExF29vbO/Dtql/w1II3Ta/Rn75+NqrtvfTKkriSmULnK5raeDU19XjtzY9MX7v83FQs/+DJqM57pP2dP3ffuGqf5o+f1yvvoQfMmhZXkfNV368ZsH/LBAkgMYSYM3sy/jSlCMlJieG2b4YfMsGWW6U7qrCtuJwmKsfxoVE0Jg+TJ44FEGhNNzx7mOGylVW14dZpv6zZNOjO9WA61vlz98XkiWNNr/1Nm0vQ0tLe618U5syejANm7Wn4vKFzsu63zTFLZn+Ifl5ulmqfQ/v75dc/D7n3hWlTCrD31N2QPyLb8DpvbWsPt48caK8nQQJIEARBEARBDBIoCYQgCIIgCIIEkCAIgiAIgiABJAiCIAiCIEgACYIgCIIgCBJAgiAIgiAIggSQIAiCIAiCIAEkCIIgCIIgSAAJgiAIgiAIEkCCIAiCIAiCBJAgCIIgCIIgASQIgiAIgiBIAAmCIAiCIAgSQIIgCIIgCIIEkCAIgiAIYqjCYaOTQBAEQRAEMfilDjx0i6vvD//g4cdJAAmCIAiCIAaSyOm8zkjouOIerhJA5Ta4SgC7b5AAEgRBEARB9IfU6SJ0CrHjXPOYUvI0QscjSGMUkAASBEEQBEHEInKKX6OLzqnvUw7Fqu/i/XYkJIAEQRAEQQxtqbOaO6eQt/6KzpEAEgRBEARBRCtyOq8bnNE5EkCCIAiCIEjqBtDcORJAgiAIgiCIWERO8WuvROc4iRwJIEEQBEEQ/St1qlFSis6RABIEQRAEMXhETud18Ufn1I+TyJEAEgRBEATRv1JHc+cIEkCCIAiCGKQip/g16uicQWeIXT2zlSABJAiCIIiBLXUUnSNIAAmCIAhikIqc4teeROdUj1N0jiABJAiCIIh+ljqKzhEkgARBEAQxSEVO8StF5wiCBJAgCIIYzFLHzaJzIVWj6BxBkAASBEEQA1PkdDKneJyicwRBAkgQBEEMAqmLe+5c97IUnSMIEkCCIAhiZ4ic4te+ic4xkjqCIAEkCIIg+kXqIghd/82dI/kjCBJAgiAIInZpMpW57ts0d44gCBJAgiCIgSx1EYSO5s4RBEECSBAEMVBFzlDmwneConMEQZAAEgRBDAap45TZShAECSBBEMQgFDkWMjmKzhEEQQJIEAQxeKUO5nPnAH2Ejhsvp4/QkdQRBEECSBAE0fciZyhz4Tuhj87BvFRJ+C4SOYIgCBJAgiD6V+p6mNkauJtbS2NMuxZ6Tu02GBhjCAwTEwRBkAASBEEiF5XMhZROsbBe5vqkKwQHlyWIoowEjw3ZmenIzkrF6NEjkZuTibTUZKSlpcJuE2G322G32+B2u2GziZBljo7ODni7vPD7Jfh8frS0tqG+vhF19U3YtLkY1TUNKCuvQXNrF7xeDjAbGBPo8iAIggSQIIhBKHWxCJ1ZZqvOE/u2KwTnEuyihNzhqdjzT7thr6kTUViYj8KRIzBmTEGfn72KymoUF5diW3Ep1qzdgNU//YZtJdXo6ORggp0uL4IgBgVsxLgTaYIMQQxqkYs+s9VY6Ab23DnOfchIdWHfmZNw0AHTMWnieOwxecKAezWKi0uxdt16rPr+F3z2xWpsL2sEBwkhQRAkgARBRC11UATjoqg9t0tltnI47RL2mzkJfz7qQMzabzpG5A0fdK+kLHN88umX+PSzlfjo45Woqe8EYzToQhAECSBBDAGRi6fuHGKIzvV07twAOVtcRlqyiBOOPRB/PvoQ7DNjat+8JDsxv2PL1hIs+/gLLHptKbaW1AGMooMEQZAAEsQgkjpErDvX75mtg5REN8fc4w7EyfOOwtQ9Jw+Z466ra8D/XluCl/77HkorWigySBAECSBB9J/IRYjOaeQt9rlzu0Z0rtffdLgX+++7Oy664BQcfNC+Q/58bNy0FS//920seu0TdHhFukAIgiABJIjYpQ6xdYWwKlVCXSF64TXpHnNN9HD85bwTcPllZ8PpcNDpMeDd9z7Gw4+9gE3b6sEYySBBECSAxFAUOUOZUyxjFJ0zyHpVCx1F5/pb/PJzPLjhuvMw9/gjd8retLe3o7OzE11dXWhvb0dXVxd8Ph/8fj84BxgDBMYg2mxwOBzweDxwuVxwupzweDyw2/p/rt7adetxz/1P44tvN4DRXEGCIEgAiUEvddSzdYiIH0fRqDTceeuVOGD/GX36rLIso66uDpWVlSgtLUVJcQnKyspQW1OLpqYmtLW1oaOjAz6vD52dnfD5ffD7JciSpHgnBARBgN1uh8vphMPphNPhhCfBg4SEBKSnpyN7+HCMHJmPkQUjkT9iBDKzspCQkNCnx1ZRUYXb7noC7y39HmAUNSUIggSQ2Kki1z13TiVsymX44K07R/RE/IAxBcm47+5rsd8+e/XJs9XW1mLL5s1Ys2Yt1v++Hjt27EBdXR3q6+rR2NiIjo4OyLIMURQD/2yBn4IgBH4yAYyF2r4pv39wyFyGLMmQZCnwU/JD8kvwSxJkzmG325GUmIj09DSkZ2QgOzsbo0aPwuTJkzBp8mSMHDkSTqczhrMVHY2Nzbj+pvvw3kerFcWmd3JaM0EQJIDEriB1iK3uHM2dIzQMSxNx/11/xZFHzO7V7TY1N+HXdb/h22++wdo1a7Fjxw5UVFSgvq4enHM4HA44XYGIncPhgCAKECK0aVN+lYlW0Dg4ZJlD8vvR1dUV/ufz++ByuTE8Oxs5uTkYM2YMZsycgRkzZ2DMmDG9ei7Ky6twxV9vx7c/bFO0oiMRJAiCBJBErseZrWZCR3PnCGNNsos+/P1vZ+MvF57ea1uvrKzEN19/jc8++xwbft+A7du3o66+HnabDR6PBx6PBw6HQxfFM/zKobt0eXDXWfd1Hx65VmzPxKmM7pYkCZ2dnWhrb0N7ewfsNhty8/IwalQhpu21Fw497BBMnTYVNrF3yr38+NNaXHLFHdhR2UGXIkEQJIC7rtSBonPEgBM/zv046fh98cQjt/bKlhsaG7Di0xX46MOP8Nuvv6G4uBhdXi+SEhORmJQIURAhiCJEUYAsc+OvIqovN8byFu1Vz6J5VLNQyEdlSUZ7RztamlvQ2dmJYcOGYWzRWMzcZyaOOeYY7Dl1z145ZwtffB233vVv+GWH7vUhCIIgARwwIhdh7lyPe7ZSdI7oH/JzPFj00kMYM7ogVm/U8d133+GtN9/Cym9XYsuWLfB2eZGSmoKkpCTY7XZ0dHSgq7ML2dnZAAM62jsgc65INzF7Tt5tZLyHfxeM6Y6BGUmhiRB2dXahsbERbW1tyMrKwqTJkzDnyCNw/PHHISsrq8evx3kXXY+ly9fRsDBBECSA/Sd1oOgcMQSu9ZBIeXH91fNx9ZXn92iLLS0teOvNt7Dk3SVYu3Yd6mprkZKaitSUFNjsgWFSWeYo21GGEfkjMGv/WSjdvh1bt2wNvHEJgu5vLLq/HuWxAGBcc3dUcT9T6WNG9hf+lYEB6OjoQG1dHSS/H2PGjsE+++6LU0+bjxkzepYtvfrHtTjjvJvQ3BqFdRMEQQJIAtjDzFYDoaPMVmJXlL+RuR588O6zyEhPi3trFRUVeOnFl/D+e+/jjw1/gDGGYZnD4Ha5w1+CBFFEY0MDamprceaZZ2Ly5En46KNl+GPDhnCpFm421Mu5YSCcwzw+zmAeQzfUJ8Yii6FiGaa5jwVlUOYymhqbUFdXh/SMDMyYOR1nnHkGjj766B69Yn+59O94b9kvJH8EQQxFAeyN6JxG6Cg6RwxR8eNcwoVnH4Y7br027q2VlZfhuX8/hyVvv4ut24qRlJiIjGEZEEURXA78BYZKs2zbshUpqal46l9PgnOOO+64AyXF25GTMxxgrFv+OI9S8oJ/v4zFNhTMYBoZZIYGaCB9iggh0ywbWoUxho6ODlRVVcFhd2Dv6XvjnPPOwQknnBD3+V7x2Tc47+Lb4fVTyRiCIAalAPYws5W6QhBEj+TP5fDjrUUPY889J8W1pbq6Oix4egHeeP0NlBSXIC0tDWnpaWAIiFzor05gDF1eLzb9sRFzjjwCC1/8D5Z/shyXX3oFHE4Hhg/Pht8nQT1twug7WbRSGOMbpakcmkgfeMQooFIQGQBBYPB6faiorAADw8x9ZuKiiy/qUUTw4DlnYsPmepJAgiB0iMkZu9+2c6QOmugcByAHf3KAywDn4FwO/pPAuRy8Xwr+DN4vy6rlEF6Od29P9Y8giEjyt9vYdPy0ajFycmJPUpC5jGcWLMB1f70W77/3PgQmIC8vD263G1w1a4JDFEU0NTVh27Zi/O2Gv+HZ557Fv5/9Ny668C8YnpONjPR0SH7JMuMXQMTHzY80RjUylD7o5/xpJE91v3YbjIFzQBQEpKWmwe1xY/3v6/Heu+/hx59+wsiR+cjLy4v5dTj7zLmoryvHz2u3BhNESAIJggi+98QfAeytuXNmma29+f2dIIhY5O+s+QfgvrtviGsrH330ER59+FH88P0PSExKRGZmpjrip3g/EG0iKisq0draisefeBxnnXMWbr/tdtx2+22YMG4CXC4XJFm2KO/Cjb5TWrxlheYIMs1taOoEGksSM1Qok0QQXbQP6uFfQxHsflwQBHR1daGsrAwJiYk4+ZSTcP2N1yMrM3YhX/HZNzjrglshwxmP8hIEsesLYGxz59TSphc/mjtHEINL/rjsxdOPXYfjj5tj5oam95eWluKeu+7B24vfAYeM3Nxc2EQRsswV3/W631FEUcT24hI4nA688NKLOPSwQ3DXHXfhlltvwYTxu8PpcECWZc13Qq6ayxdN1E8b6YvpDdL0TpNoX0godWUCjeYCMvPfFbcFQUBLaysqKiowevQoXHnVlTj3vHNjfoVbWloxfdYpaKIsYYIgALC8scdxncxFVaqEonMEsauIHwDYRC9WLP03xo4pjHkrLyxciIcfehQ7tpcib0Qu3B4PZEk2FD8gMNRZXFyC9Ix0vPra/zB12lQseHoBLr30MhSNLQoMFcuyLmLILWTPuANIb8z+4ypBMxVEw4gfM5ZEMM1NdVRQK4UCCwhkdVU1Wlpbcfjhh+GOu+7A+PHjYz6iAw49DZu3NZEEEsRQF8Cc0Ufz+L4bEwSxq8hfSiLw28/vQRCEmNYrKSnBrbfcinffWYLk5CRkZWVB5lyXqasUOVEUsXXrNuTl5eKdJe9gzNgx+OTjT3DcMccjKzsLaWlpkCS/fkDCqstHJBlUPmI4+U8hehyWQ8AquTMrDq2VOkPR04tf90OaiGHwMVEQ4PP5sH17KTKGZeDa667BxZdcHPMrf8rpV+CrVVtJAgliCCMmpRXdRqeBIIau/OVlO7Fm9RLDvrqw0KBF/12Eiy+6BD+u/hH5I0cgJTkFsiJqxzVyxoPyt71kO7IyM/HOe+9gbNFYlJSU4KR5J4PLMoZnZ0Py+3XrWklfrMkfPfvKDJiUgzZPDlFk+irl0Tx6qFle8RgHIAgiMoalo7W1DR+89z7WrlmLvffeCympqVEfxkknHoWyHVvx6/odMJvZSBAECSBBELuo/O02Jg3ffP5aTGt3dnbiumuvw3333AcAyM8fAUEQIXOukTKumk0iioGED4fTjrfffRu7T9wdAPCXCy/GqpWrUFRUBJ/fby53FvdZH66JKEalud1CZr2wdWawUZQvohgaDAWH/JNzjsSEBCQlJeH7H37AknffQ35+PsbvFv2Q8JzDD0RHez1++GkzSSBBkAASBDFU5G/vPfPw0XsLY1r79/W/46wzzsIHSz5AXn4eUlNTI0b9wDkEQUBjYyOam5ux6H+LsM+++wAAnnz8STz+2OMYP35cWCCtpY8bm5zBPMO+hOlkLpIMaod0oRNDY0lUPKYZMg5FAzMzh6G2rg6L31qMzs5OHHjQgVEfxwH7z4DD5sXX3/4WfF6SQIIgASQIYpeVvxnT8vHOG8/EtPZ7S97D+edegK1bt2H06FGw2+2Q5aCgcXUCmTL5A4zB6/OheFsxHnv8Ucw7eR4AYOuWrbjwgovgcXuQmJQQ7giikzmjKB83173o09OCS3KdrRkKXyQ1YhGE0Gp4FxYiyHS3FSLIAJlzpCQnw2azYenSpVi37lcceughcLlcUb2uM6bvicwMJ5Z/9jNJIEEMIQQ6BQQxtORv2pQ8vP36gpjWfvzxJ3DBeRego70do0cVAkBA/hTDvoHC7cqEje4Wb5s3bcIFF12AC/9yIdra2gAA995zH6qrqpCZOQySpIwiKkSQq8tP8dA/TUcQbZl3zhX7plxP9TvC2+JQPw6D5UPRSbOy8trnUO43FM8T3rbiMSjOm/Yxrjge5XlRLuOXJCQkJqBobBE+fP8DHHXEUfj999+jfn3POmMe7vjHmaDqDgQxdGA5o4+iv3SCGCLyt/u4DCxf+lJMa1937XX49zPPIXt4FlJTUiFJkmbIVy0woWcE5xBEEaWlpRg9ehQ+//Iz2O0O2Gx2rFq5En8+6hikp6fB6XLpIojKXefG3X3VgmWmLFxT+Dnud0qzBA9YdAAJPay7xzDDN5qSMEbLh5cI9lIWGMO24hKkp6fi6WeexiGHHBK96D/5PO5/bLHuuiEIYteDIoAEMUQYMdwVk/x1dnXi7DPPxjP/90w4y9cvScHgnjICBZUQhu9nDK2trfB5vXjssUfh8SSgvr4BjAFPPfkU2lpb4fZ41CVjwjfVkT5V1C30/IpoGVc+aPAYVzScDD1Nd/AtFAFUPKb5p48mKrapjTbCIjIYttruCKkquqg8NpVkQxf14+FNcVX0UJZljB5ViPa2dpxx2pl44403on7Nr7rifJx3xmyFylJ8gCBIAAmCGIQEojgpiRzff/OW4aNGNDQ04JSTTsE7bwfq9LlDLdnQLS5a4dPKCQNQUlyCq/56NfadtR+qqqqRlZWJn378CSs+XYG8/BGQ/H7VMLJalJQCphQjrpey7gHW7oL1GjELD+Wi+ycU4tf9u/lwsGKtsKwph61V58BCBgG1jerELrhASBCVx8xNhLt7WcAvScjNzYXL6cTFF12C5/79XNRXzF23X4fDZ08gCSQIEkCCIAan+wU0zCZ0Yf2aDw0XMRrgq6mpxvyT5+Pzz77AmLFjYLPZIMncUD5C0SythAiMoaKyEhMn7o5rr7sGXq8XkiSBMYb/PL8QtbW18Hg83aKjECNt5I1r5s9p5Uo/308ZnTMSKP0cP9XvSs3TzvvTraOOSqojhMroHjeeo6g6hxrJU23T+Jxzg0LbynmBmZmZSE9Lw7V/vRZPPflU1JfOC889hInjM+hviCBIAAmCGGT2B7BAb98vPv5P1GtVV1fj1FNOw/ff/YCxY8dAYIK+PIvF8G8IvyShqakJf7/570hJSUFNdQ1SUlJQWVGJr7/6ClmZWZAlKSxLir3WSV5YeLhe+NTSyA2GY7UiCJNhYa4fGub64V/V0K3mOdVRQs2QsGKc2lAoAVVyB1dIofacqyKgyvOllPDgbb8kIS0tFTk5Ofj7jX/H448/HvW18MmHLyEjVUCw8CD9SREECSBBEANe/oKxvace+StGjRoZ1Vp1dbU4/dTT8ePqnzBmzGgwMEv5Mxr+5ZyDMYYdpaU49NBDMHfeiWhsbAIYQ0KCB598/Ak2bdqElNQUfcRPO4dOla0L3Rw79TLdMqocNjUaBg5LFNdH4rQRPm0GsTbaZ7ZPuvmQBs+pjwjCQOigjgxqRNF0GF4lgTKSkpKQm5uLf/z9lpgiget+fA8i6wq2vSMJJAgSQIIgBrz8zT1mGk484aio1mpuacZZZ5yN1T+sxugxo8CBiPKnS0AI/vT5fPBLEq646kqIooDWlhbYbTb4fX68t+Q9yJIMxphCgEzET/G8gEFkzWAd6JI/FJE6dAulVYkY7VxDbiSpFsPQ2uQQzvVlbXQRVCijierzrRz+5UbD8AYRQG15HkmWkZSchLzcXPz9ppvx/HPPR31FffD2E+CynySQIHYxqBA0Qexy/seQn+OKutafJEk49+xzsWL5CowZMyYgZyr5MxjqNRFDxhhKS3dg9kEH4cabbkBzUzMkSUJiYiJqa2ux4OkF8Pl9cLpcGhmCUgdNO4BE7BHMdffEncLAdEqteQDMsCRMNK3gdN1AtMtBUz5G0Q3EqCwMM1yOQVl4mnPA7XbBZrPhnXfexfjdxmHChAkRz0N2dib8vhZ8t3oTFYomiF0IigASxC4jf4F5fyLrwndfvxX1aldefgU+eP9DjB4zGoxph30t5M8g8iRJEiS/HxdceAHsdjva2trAwZGYlIh1a9dh67ZtSExMVGX9GkbNoJ0PaDCvDjCf8wfoIoaGQ7qRooDcIBmEa8u1cMMhaf3+w3BeoGoeoerlVAwSq6KuxkPvuugsVHHT8HBwamoq0lJTcenFl+Hzzz+P6hq58W+XYhIlhRAECSBBEAPO/gJJH1zGm4sejHqtO26/Ay+/9ApGjSqEKIhq+eOwlj+oH2MAampqMGmPyZh1wP5oaW6BIAjhONlXX32FxsZG2Gw23RCtUQKEtgsGDJJAYCJ7XJuNC6jmCio21i1aoecwTBgxyzY2yABWCLl237jh+QMMS+ugO1klvD2uTBBBhCF6ZXKJOjFk2LBhEEURF5x3ITZs2BDVtfLxhy/BafeCkkIIggSQIIiBIn9BTjx2b8yYvmdUa/3n+efx4P0PIX9kPpwOp17+wE3lzyjxQOYcTU3NmD9/PtLT09DU1ATOOWw2G9rb2vDbr7/B43YrnkchYaoyL8ZJIUa/G5dkMYn4QV3Dz7A4NLhpgWd9bT+D5wZ0reZgktyiWldT3Fotdppey0BUr4euXA/UEpibk4Pmpmacc9Y5qKysjOqaWfKGYj4g1QckCBJAgiB2tv8xJCfIeOqxO6Ja5fPPP8fNf78Fw3Oy4XF7AkWelRGjCPJnNPzb2dmJ7OwszD74IEh+KfxcdrsdDQ2NqG+oh8vlViViKAsqKwWOR4wGGougvm4fun/jsf/jJrUAdfX+VOVgNMktRucM0Je5sRI7QN0xBfrai4gggVxTtscvSSgsLMCvv/6GSy+5DLIsR7xuJk+egHnHzTD88kEQBAkgQRD9aX+hen+fRNfmraSkGFddcRVEQUBaalqww4fxnLGYhn+rqzF12lSMHz8edXV14WQSu82G5uZmNDU1we6wG9SyMxIkk6iekYQBpuVZVLVhlM6ifEjX983Ab0wjgfpyMLp9D50nszl7qj7K3KC8DTeQQBgM9Vq/dsoDCv1XkmWMHzcOH334EW79561RXT9PPnYHUhKDrzr5H0GQABIEsRPkL8jZpx6M7OzMiGv4/X5cd83fsL1kO3JzcyFJkqo8idWcv5A0GA7/yjJ8Ph+OPfZYuNwudHV1hWXF7XGjorwCtbV1cDocBlEvoyFSo5p63DRJBFxjb1aBPUA95Ayu/p9iWNZs80op1M37M9lfKM6Zuqizoqi1quMH9EIHbfFodYFoqIK4EWQwOLTMGMPo0aPwxONP4q03o0seev/tp8FlHw0FEwQJIEEQO8f/GBJcftx3z01RrfLQgw9i6YdLMWrUKEiSpJI6K2FQjqTCQCa8XV5kZWVh8h6T4ff7wyVMOOcQbTZUVFagpbkZNpvNQPCMo2TaYV9ukgRiKHzaCoDK4VwTwVP/Uwti93ZMhFCbEcz1Q9fcKOOXQz+crRRFs6LPgIEEalrCRfWaBuZuejwepKWm4obrb8TGjRsjXkdjRhfg+KP3NvwyQhAECSBBEH1pf4yByxIWv/pYVGt89tlnePSRx5A/Mh+iIEQV6VNlIsBkKJhzNLc0Y2RBAfLz89Hc1KwWFAB1dXXw+nwqVeBmXSy4dUkYQ+lT9O6FSvCUQ8HdIqeUOpj940YRQWMhVHmQ0X7DpIsHh+mwOufGJXhUV4FhJBC6kjKRZNAvScjOzkZtTS3+dt31Uc0HfPqpu+EKZwXTXyRBkAASBNEv/gcAM6aNxOTJkYv51tbW4OabboYo2pCUmARJ124M+nlyGhE0kz8whobGRkyfPh3Dc4ajvb29Oykh+LO1pbU7MUQ7hKlKCjEeElYVftZKn7LFGtQyaDyUq3xOqDJ21T9NIooGQqhuWafeUVUkj5sM/2qWV83Zs8rCjkYCrYaUlR1c/H6MGTManyz7BI89Gt2Xin89Gow801AwQZAAEgTR1/IXKvjciXfefDaqVe6/7wGsW7tOMe/PyPaM5ICbJ4EEf0qSBJfTiRkzpgNAOHqkjAB2dXVBhtT9bLosYm46/0/hQeoInC7Cp5Y4XTSPG9T6M5C/7n3Xrg/jSKCyPh+Umc1aEVSfT32LNx5FgWft3MUYJZBbf6lgjCE/fwQeevAhrP7hh4jX1ZFHHoxR+QmaLw0EQZAAEgTR2/YX7sJ1/V9Pj2qNj5d9jBcWvojCwgJ1MkGUwmAlfxyAz+tFeno68vLy4Pf5u1vJKZaTDYZ7uVYCDfvYaod4tQKmmbMHpQyaRAuthn2h6f6hFD/tnECuFD2Dmn5QloSBqryOdnjX+PUwE3PoEz5ikkDzYX+Zc6SkpMDb5cWt/7wNXp834vX11qtPgctd1CuYIEgACYLoS/8L1fy74rLzIi7e2NCAe+6+Bw67HW6XW1PsOfafWvkD5/D5fEhITEBSchI6Ozt18gcANpst4K26UjL6LFnlTVVUkOuHfDk3Ej6uEz7DJI9okkEAVacQbaUZaDOHtVFAhRiGT5pmXmK3WEIveprhccOED96LEhicD1hQWIjPVnyOZxdEjjAPH56F+SfuH/iFWgQTBAkgQRB9YH/BD9iH77vOzA5VLFjwDH5c/SNycnLC9f7UUSWYCoPhcgbP2NHRgeysbGRmZqKjo0MticGfCR4PBIjqxA5NX9tuwVTIlbYnsaJwn3obxvP+1BPzFFm44U1qs4PVyyul1yjSyJVyp5Q95f6Hb2sTdLWix00SRKLp8mGU9KH/yU2uE25wmeXm5uLxx5+IKiv40YduBeOdoDZxBEECSBBEH/gfwJCdIeLoow4xWEAdflm3bh3+/ey/kZuX270612f3cqun0yynjf6BA+3t7RhZUIBhw4ap6v8pRSstLQ2iTQwPBauGOM3ET1F7Rtldg2tEUDUf0DRZQz1fUFXmRT1hTz0nj+s7cGi7gOiSQFQRQOj2TyWCpr18u88PB49pbh/XyLtySzARSmiEUuYc6elpqCivxCMPPxrNdw1cetFxRpchQRAkgARB9Mj+gnOsHnnghqjWeOKxJ9BQ34Dk5OReGfo1HKYEh9frQ25uDuwOeyDBRCmKHPD6fMjMyoLH7YHf79fVwOvetHK41ECqjKTQcD5gNEkcJrX/OBQFmaETRlXUUjvvD1rBM35MfRsmbeC6H4t9Lp9WWhHnULCM0aMK8ebrb2D58uVW3zUAADffeCVERlFAgiABJAiiV/0PAHKy7Jh90H4RF//k40/w7rvvYkT+CMiSbLApq8xfRJz3p0zcYIxh2LBhughUSHba29qQm5uDjIx0dHV2qWrjQSlIXNOKDupkDCPBMhJBwzl/RskemqQO7WPcsPizPuNYtx8GUUnjoWC1BFqXe+mZBEZd6FtzpTidTghMwBOPPxmQ9whceuEJpoJIEAQJIEEQsdpf8AP19n9eEXFpr7cLT//f0xCYAKfDad4GTPuhzzU3OazlD4GSLw6nA6mpqRrp6N5Al9eL1NRUpKamwuvtUg/5QiFF4JqevkrRg3WkDdo6fCaZvLr5dpGTQdRzCKEeFjaKRBpF/bj6OJXRQG7SYUWVHMLRs0igqhIgTOZ06rcjyTLyR+Zjxacr8Prrb0S89m664XIwdICigARBAkgQRC/4H8CQnszx56MOjbj4++9/gM8//wI5OTnBmnzRRYKUtfjUlqgRBMVcMplz2EQRCYkJ4LJS7LpFyOfzITExKZwl3P0U2rIrWlGCXvS4SWTNKCPXNLoHXTavMuKnjQpyzbxD7Vw+bXQSRlE/aCKd3EB8oZVAdScRlcdxGHds4QY2r9uWsexpO42EtssEASnJKfjP8/9BW1tbxOvv9JMPob9ZgiABJAiix/YXjP5d+pdTIi7d3t6Ohf95AS6XCzZRVIuE4eZNEgFUXTWgkwxlxw7GBNjtDsiyrBGbwG1vlxfDhmVgzJgx6PJ3BaJDUA4Tm8yTM5gPaCSB4PrsW8NagFzbR1iT7WsVFdSmUxgllSiyhPXzAI0EUWVmyqRj87IvUGdFQyPNus4tiG4oWOP1KlGUZRk5OcOx6tuVeCOKKOBtt1wDLnVSdxCCIAEkCKIn/gcwOG1duPTisyMuvnTpUnz79TfIzsoKJH4gmvZgxlEiq6FfZUIIY+juLazZIOeALEsQRRH77bcfRCZCliRNRE0pSkqBNE78UEawOFfH9dQiBrXgaaUp0j+zJBJNJw79sLP6Nod6TiTXDv9qxNCqNI9hv2btz2jmA+q/B1iuDwCpqan47yuLIkYBPR43DtxvgkoqCYIgASQIIg6OmjMz4jJdXZ1Y9N9FcDqcquifqVca1pMzXthUAoNDooH2cgZSAw4Ghvq6ekydOhUFIwvR2tqmkjj1OppIlkb2DIdaDcvAqOxQI4ux+586sqidC6jcP73MQjtkDePzpOzywaOVwFjmA6prxRjLpNG8PR4oC5OdnY1VK1fh7bffjngt3nTDJeBcpiggQZAAEgQRO4HSL1zuxJ23XRdx6RUrPsNXX36NrOysiGVfdDIIi6xfTXaIdhuSJKGzsxNMYDqpCQlNa1srRozIQ37+CDQ2Nyr8jKsSPYzn0kE9N1CbbGEQ3eO6EVL9eDA3+Kd/3EQIoclK1iamcKuyLzCOAKrm8/VEAmFh/ZHF3+zLAWMMiYkJePONtyBJ1hnBU/aYiJxMO6y+VxAEQQJIEITR53XQAHYrykZ6emrE5d9e/DbAOWw2W1Rz/ozmf+nkz0QWQsWSGWPw+fxobW2FEIz2GM1t83Z5kZ6RgdkHz4YMSWuTqsxa4yFhrkui4NCIH6DJIlZ311CldXCD0KBhp2D1HENNeUB9H2CDVnDcQPigEz2jyKfxnEAohR1GEmc1FGwshmZDy8plZM4xfPhwfPXlV/ho6bKI1+NF588L3GBkgQQxMAWQUcEmghiA+gcW/Ns898wTIi79ww/fY/nHy5GVlaXqwRvtnD/D4b+IbeIAxhi6/F2ob2hQRQC7dar798aGRvz5mD9j+LDhaGluMY4W6mTIIPlDI35cI36qrFpN4gfX9OVVdg2Gtn2ccohZI4Pq4s1GIqg4Dm5U9sViLqAuKqp+PZRRQl1WsEVLP/VGzOYTwnybAESbDVyWseS99yJek+efeyogh0rC0F80QQw4ARRtbog2FwTRASbYwJgIquJJEDvd/xBK/jjrzJMiLv7RRx+jsbERLpcreuEzKAKoHfrVb8NIKDmqq6oCBaeZJtSkELS6+jpMmLAbpk6bioaWegiaIWPt3Di1WClMSxv4U2bvKvZTlagBdYePcBRQI4dhSYS6VAwMIonWIgjDEjCG8xt5ND8V6xmUibEq5WKeFWwt+zB47QMZwTn49JPlWLNmjeU1abfbsf++E+hvmSAGrACKLgQk0AObzRO4bddKoUBSSBD96n+BD+C9p42LuGx5RTmWfrgUaWlpEaJ/3FwGdUWgrTNClffZmR1lZeVoa2uHKAia0d/uX/ySHzabHWeceQYEJsDb5dULjlkdQOiFUi1gBtE5bfQvfGa5ZUJIWJK0pWGgjSZCdR/XRucM5wCaiF20EhjFEL7y9bGWOuNWf8bXQff9bo8HlZVV+GjpRxGvzVNPPiZwg4aBCWLgCWDor5MxAUywQRAd0EthUAxJCgmiX/SPMQGcyzj/nMjRv6++/AqbNm5ESkqKefQP0Uf/rKJCOpHggCfBg+LiYtTUVMPldHUPp6rauwEMDOVl5Zhz5BxM/dNUVNZWBt9HQpKjESXlXD2NtGr756rnABpE/0zEzjA5RCOaqr7FmvZs4Y4lGhGERVFr4y4gcUQCEUOrON1LatDfGbCoG6nYniwjIz0dny7/FK2tLZbX5vHHHQGbQMPABDGABdAIjRTaTKRQJCkkiF72PwBAolvCnMNnR1x8xaefQWACBEGwiODEEf2DedRPuYzT5UJNTTVqqmvgdDq71zRILOno6EBiYiIuuPACAIDP61PJjX74V+VZOvFTD9dqh2mN5S7iP25QHNpyyJmrRcooGmiS+csASLKEjo4OdHV1wefzBwpqa4RRP//PStANrieLUj9GQ/qIIJHp6Rn46aefseLTFRGvz9n7/8ngaiIIYgALYJRSaHdDtLkjSCFBENH7X+CDcsqk0RGX/fW33/D1V18jPT09PMctYqmXKKN/EQUyuD27zYbWljY0NzfD4XSoo19KeeEAExjKdpRh/qnzMX3qdFTVVQbFVVs6RntbIyKqSJtRRFA7zMujiv6pu4GYZANrooKqFnraYtoaa1PJHwNkLqO5uRmSJMPn86KpqQnlVWXYUV6K0vJSVFdXo7W1DV1eLzjk6KKysE7wsM4I5pEzyAEIogC/z4dvvl0Z8Rr981GBLzGMagISxIDC1vNNsEDiCFPE/jgHhxwoBMo5OJe6b0MGePAxgiB0+hf6oJx7/OERl/5+1XeorqpC/siR5sWcTSb9G0f/jGv/AQZRpOAPm92OiqoKFG/bhsMOOwwyl8HADAoQB362t7cje3g2brjpBpx40olobW2D2+0GIOu2r5cpk9uGvyvVN+aXIXAEoRVZ9/Gw8PME3vRYSOqCrxvjAGeseznGAsuw7vVY8L2zorocJ514Em688Ubs2LEDnZ2dqKmpRVnZDmzfXorNmzahoqICTU3NqKypAABkpA6Dx+OGzWbTST7jvPu5tRUeFI9xFnqFmOr+8DqRtgMgI2MYvvryK1RXVyMrK8v0VJ4492hcff0j4MyDcNiTIIhdQQCNnJCBQQxmFBtJYeBn+DY4SSFBhD/FGUTWjtNOnRtx8W++/gaiaANjTBHFi5y4oVQizo1micGg/ywMI4OMMchcxsqVq3D2uedAEATIsqzatvKnIAjYXlKK444/DvNPmo9X33gVHrdbG8TSH4PFbSMRNJNB3ek2eykYwo8y5TbDQtQte+FlgqIYkiyopCy4Oc4hiCIqqsqRNSwb9z9wP0aNHoVRo0fDZhdht9lhs9mCMliDiooKNDY2YsP6Dfjyiy+w5pe1qKioQJfUhfTUDCQnJYGJYre0mQih8jHVlwOF4AV+VZ8V1XYUq6akJGPjhj/wxRdf4qST5pleo4IgYNqfxmD1mgpwhf4SBLErCmCvSGEoekhSSAwl/wt8QI4fmxdx2V9+/gWrVn2HtPRUXQKDeoswLeuhf3atJJoXglZKWnJCMn74YTW2bd2GpOQktLa2QhspVBZ6liQfqqtr8MBDD+D7H77H1uKtyM3ODbeUM5U/g6FVUxE0k0GDM26ogqEooEr6FDKokL3uSB8P5juEIoAMnKklkDGG9vZ2cHDceecdyBsxAmvXroNNFMO1H4FAf2Wny4WioiK4PW4cddSROP+CC7Bl82Zs27oNHy79EJ9+ugLFpcWwMTtyc3NgdzgiR++0kqi8P3gqVPtssj4TBEiShDW//GIpgACw3z57YvWaiqD8WWk3QRD9xc6doMcCw8eCYIcgOrvnEtqVmcduCKITgmAPDjXTGwex6zNht1ERl1m1ahUqKyvhcXsssn6N7uOGeQJqX+OW62uVKjExCTt27MCO0lIkJyer3IsbjDMLTEB1dTWys7Px4IMPAgCam5shQIhS/tRyajQH0Kxun/ofND+VRaCN1+UG2cjK/eTcTJi7z2ljSwNOOfEUnH/B+di2dSuE4FxppZPLnKOjowP19fUo21GGP/7YiNraGowcORLHn3g8FixYgPfeX4KFzy/E7IMPQmVlJbZu24KuLm/39gzOH0yuAWWfY500ai+CYAJOSkoKvv/+h6Dwm3PMnw+DLHXR+zdBkADGJoWh7GPR3l2rkKSQ2BXjf4wJkCUvzj/35IhL//77egiMqYfUTJI2YHKfPvlDE7WLJBDB++x2OxpbGvDDD6uRmJQIWZY0T60vN2KzCdi4cRPmzpuLv117PVo7WuH1+6BKFdAkO0S6bSV95pm/xo+ZiqRJcoqRpGqTQ0RBQGVdJcaNGYeHH3sYVVVV6OrqAmPQlXvRDp8Dgb7L9Q0N2LJpC7Zv347c3Fycc945eOPNN/DeB+/jtPmnoaamGlu3bobP74fABMNpAOqXPJroMAynD6SkpOK3db/iyy+/srxWd58wDsmJgvZ7A0EQJICRnFAAE4yk0E1SSOxK/heIpnmAP02ZbLloVVUlfl23DknJSeEMVdMooGEWKI8YFbQsDKz/3gaH6MCSJUtQXlYOl8utligYlUFh4FzGls1bcdvtt+LoI45GXWMtZNmiDEks8wCNxM2k9DM31EIDGdS0hTOST210MvQMoiiioqYCHpcHL7z4AhITk1BdXQNBEExr/nHTLwqBeZcN9Q3Y+MdGNDc347DDDsPCFxdi2ScfY+6JJ6KktBilpdvBgkO7kURQW/8vYk1JADa7DW1t7fhu1aqIl/eMvXbXXo0EQZAAxiuFNhMpdKsKV4elkOadEAPa/wIfjKMLh0dc9scff8KWLVuRlJhkWfTZSAatIj9WySNm2w913MhIz8Dateuw/vf1yMzMBA8lgsC4NF1IZFpamtHY2ITnnn8OU/80FTUN1d3JFVxdDNBQtiyigCqhM6z40l2MWdMC2FAGlUPGVsPAqvmJwaSP6poqAMBLL76EqdOmorh4G0RRsM5TNkii0VqYIAS6qmzevAnlZeU44MADsOh/i/D24ncwafIkbNqyES3NLRCDiSJGIscjDQ+bDBlzzuFyOrFly9aI1+ykiUWB925QORiCIAHsMylUdzNRiyH1PSYGNiNGZEdcZv3v69Ha2gqb3WYqDeYCZy0b0Yqf8ibngMPpQFtnK5YtWwaX26VZQB3hUtYGFEURVZWVsDvseP311zF+7HhUN1SrsmphUggaEcRPM6UPJo3fYBj9M5BBbReQiDUKAQiiiNraGsiQ8dwzz+G4E47DH3/80T10rymCbdT5w+zLglLLBEGAX5KCpWMqcfwJx2H5p8tx2z9vQ2NjE4qLiwM1F1VibfWNJEJUOHgzKTkJW7dsRXl5ueXm9tt3L8iyj0ZnCIIEsF+UMEKLOze1uCMGCDxYykXGobP3jbh0cUlJuO9u7JE76w/6SPP9YCKUnHMkuhPx+mtvYPPGzUhNTQ1U9tNmJRvIoGgTUVJcgoyMDLy75F2MHzseNQ01kGW5O15klHChva0RP63gRVsL2lQGdRFB69siE1BdVwUJEp5+6mmcfe7Z2LBhA7gczNDVSp+Fl3fPozQauu0+z6IowufzYfOmzZAkGbfefis+/Ww5Jk+ahA2bNsDr9QaGnQ2uD+O+0dbXkCchAdtLSvDjjz9aXrOz9psBm+C1/A5CEAQJYP9JoY36HhMDwv8AMHC5AyfNO8Zy0YaGBmzZvBkejyfqyB1M7rOe9xfdUKBS6FJT01CyoxjLly/H8OHDwWWuaWtmjs1mw5atW5CVlYn3P3gf0/bcC/VNdfD6fKrC0kZz/5T7qxM4XRQwquCXIlGYG4ildXFqABAYQ3VDNQDghf+8gPMuOA8b1m+Az+cz74oRzVxAZXa1/gUKryOKIurrG1C8rRj77LsPVny+AhecdyG2lWxFY2MjbKLNxMWiuyd0vDZRRFtbG9atXRfxvI4ZNRzmqksQBAnggJFCN/U9JvqVYeke2O12y2U2bNiA4m3FSEhIiJi40R0h0i7GLcVOFyk03IZeDRhjsIt2PLPgWVRVVSErKxsulwtOpwsOhx2iKKoyXpXRKw4Om2jDlq1bkZySjHfffQfH/vlYNLc1oaW1OTB8aRYFBNcM11pIX+Twn/78aYZjtdFApQQG+vvKqG2sRXpKOj5Y8gFOPuXkgPz5fcHMXK6J3AX2XxAYbDYbnE4HXC4X3G433C43XE4nnE4nbDabQc9ncxEUhMB71OZNmyEIDP9+/lk88dgTqKurR3l5maqbSPc1wWC8SW763cVms2N7yfaI1/fECaPpj5wgSAAHgxSKhn2PVXMLRRcEgfoeEz0jpDW5wzMiLrt502Y01DfA4XBEiNLAtPev/plhGMXSbsM4uqiMWHFkDcvCut/X4o3X30BaWho4l8EEBpfLhbS0dIwsGIkxY8cgNzcXSUmJcDqcwY5kAaGy2WzYXrIdMmS8+OKLuPH6G+CVvKhrrA0KFtMXq+bq4+HcQvoUxxWp/IvRJtQSqI6GCUxAS2sLmlobMXP6THy64lPM2n8W1q9fD78khRMgOOcQRQFutxtp6WkoKCjA2LFjkJOTg6SkZNjtdnAO+P1++CUpHNFLTExAdnY2Ro8ejVGjR2HYsGHweDyw2WymIggEoquVlVWorqzCFVddgXeWvA1BEFBcXBKOBBpfmBG+GARxuVwor6iA1+u1vHZH5OVEuGIJgugvbHQK4pBCanFH9BHDMlIjLrNjxw74/H4wQbD8UI40d8uoa4jlNqJ6mIOJIjLS0vHA/Q/irTffgtfrgyAIsNltSPB4MDwnB6NHj8Juu+2GwlGFSEtLQ05uDmRJRnVtNTraOiCIAqoqqtCe3IZ/3HIL9t57Oq699loUby+GXbAjMSEp/HelEjHjMGXU0Sxlz19A3fVDuSoL9fXlgRIrjDFIfgmNrY0AgGv/eh2uu+5aMMbwx8Y/IAoiwDhsoh3JqcnISM9AW3sb6urqsHXLVmz8YyM2btqE7dtLUFdbhy6vF36/H7IkgTEGUbTBZhPhdDqRlp6OgoKRGFs0FhMmTEBuTi7S09ORmp6KlqYWNDQ2wOfzh3c71BBEFEW0tbejdHspjjzqSCz7ZBmOP/YEbN26BWPGjIHf70c4KmvQAQSKFnjahm6eBA/KduxASXEJisYVmV67RUWF4LIUvnYJgiABHMROSC3uiJ7H/0KMHj0y4tLV1dXBAtC6an4WrsYj74HFkK++hIzid21mrywjwZOI5qZmfPH1FxAgBJJBNPvgsrmQN2IE0jPSMX78eBw+53BMnbonRhaMhCRJqKyoRHNzC/7Y8AcOPuQQfPLxJ3jwoQfx7HPPoqGlHm6HGw6HE4Csd7oIbeG0jzGjZRQyqBXBkA8xBnAZaGpvAABM/dNU3H77HTjwoANRUVGBhvp62Ox2pKSkIDMrE62trdi2rRivvPwKvvrqK5TtKENNdQ0qaysNvm4KECAoXmcOCXL4NwaG3OF5yMkZjqysLMzcZyYOO/wwjB8/HmnpaWhqbEJ9fQM4DyUYIdynuWRbCabtNQ3Lln+EI+cchU2bNqNoXBEkv89E+kwumkAfObicTtRU12LT5k2WAnjg/jMhyw9DFBKC26e/foLYafpSsPsZFIfvl894CylUiCExdAVQlv1Y8MQ1OP6YI0yX7OrqwtlnnoOvv/oK2dnZgTp24esrOIwa6T5ttwrNY9ouFly5nVCESDFvLXS/chjYuKQJV/UD9nZ1oa29HT65e9iwaMw4TJmyB04++WTss+8+SExIREVlJZoaG5GVlYW09HSs/PZbPPzww1jx+QoAgFMMzI+zLAodlQYbCKFC+pjyS18w4tfWFWiBlpudi6v+ehXmnzIfngQPtm3dBgAYnpODlKRkFG8vxgfvfYAPl36IP/7YiJq66vDm3Q5PYBhXFBXbDyqe4mcgcaT7PoCjo7MTHe0daO9qC+9HUVERDj70EMybdyJ2n7g7vF4fKsrLIUlSYA4mWHjgv6CwAL///juOPvLPqKmuwZjRo+GX/MEvtsHnDEUDze4LGur27dtx+52347LLL7M8t4XjDoZXckcWTIIgSAB3XSeUgx+KJIVD/csBGIPkb8WvP76FzGHDTBfdvn07zj7zbGzfvh0pKalRyZ6R0IVkKNLyyse5pqtHuBtGuPetsfiplgPX1fQLPMDg9XnRFBxCDUXTTj75ZJx88slIS0vD9h070NnejsJRo+Dt8uKLLz/Hs888iy+//jK8jsfhgSja1MkVFlFA43dFZi6CHOjs7IAfgSHWwpGjcNbZZ+H4447D6NGjUbpjB1qam5GTl4f01FSsWbsWzz//PJYv/wRl5WUAAIfoRFJSUrBfL9cJFsLSx8K7opQ/BqaTRMYEMMbQ0dGO2to6SPCjIL8QBx54AM6/4AIccOD+8Hm9KC+vAJdlCMFkHEmSUTiqEL/8/AvmHDYHfr8fI0aMCM5X7Ba88HOaSCEYQ0lxCS69/BLcededlqd3+n4nYEelNzA3lOZNEwQJIKGQwmC0kKRwaAmgQ+xA8cYVlot+9913uOC8CyBJMlwuV9TyphI/xc9Isme07bAAcm4RBTSXQnAYi2n4XAjo6uxAa2drMCpYhPMuOB9nn3kWRFHEtuJi2G02jCwoQGtrC3755Re88/Y7+OCDD1BbXxs+Vw7BAZvdHhCWGKKAWunz+/3w+rvCKikyETNmzMD8007F/rP2x6jCQlRWVaGuthapaWkYMWIE1q//HU8+8STeeeddtHUEjiMtKQ1CqBuHgUAxnQCaR/8Cvwb6QGuXCwlac1Mz6hprkZqUhiOPOgJXXX0VZsycgZaWFtTW1AYzshk45xhZMBJLP1yKeXPnISMjAympKeFahdFGAneU7sC8k07E/y34P8vzO/eki7DqpzISQILYyYipmXvcRqdhABk5C5akCWUgC/bgTxuYaA/8DGYch0vR0CjK4Pa/YBHotFQ7LrnodMtlf/rpJ7z7zrvwuD2qciBR9fG1+N3qS4VZG7fu1bjJUWlX4sblRTRPxIN9c90uD5w2B8qryvHpp8vx6aefYkTeCOy3337w+nwoKSmB3+fHuPHjccScOTjssMOw1157Q2QiGusb0NzeDJ/kg8/vDfyUfPBJfsiSDC4H/3EOWZYhSRIkvx9eyQevpFje74Uk++FyujFl8hScd+55uPbaa3HRRRdh+t7T0dbRgR2lpfB2dWHU6NEQBQEPPfwwrr7qKqz+aTX8fj8yktPhcrqDEge9+Bn+NBI8FvxzV9+nHS4O4XI6MSwjE5xxrPxuJd564y1UVVdj5swZGDFiBNpaWyFJEgRBQFtrG6ZOm4rkpGS8/sbrSEsJySr0smkigO3tbcjJzcGJ8060vIY/++Jb/LG5CoHi5zrlJgiin6AkkEEhhQLABNXbpD4qqIwW8vDwMjF4SE70RFymtrYWXZ1dENLEqOQtOgGNXgYtQ2i6FmaASe8K3aZUy4WigbIMCALSktLh9/vxy5pfMP+0+TjrjLPxj3/cjKKisdi2rRjbS0ogCAKGDRuGeSeeiOOPPRabNm/Gjh07sGnTJqxZswbr129ARUUFOts74JW9kLjxcYgQ4XYnIjk5GaPHjMEee+yBPfaYjNy8XBSNLUJWVhaamprQ0NCA6urqQPeTpCSMHjUKyz/9FH+/6e9Y/8fvwYhfOgAOiQe7mTAGxrn6JxS5FEYnh2nu4Ex3nzYjV4kkSXC7XBg3Zhyampvx6GOP4IP33se9992LufPmoqW5BXV1deCco662DldcdQXWrVuHfz//b+wxaQokv2S1Q6p77XY7Gpua0NbWhoSEBNPLJy0tmf7YCYIEkOg9KQwO8ZlKodw9iZ8YkCR4XBGXaW5qgSTJYBYuFpPQWUQKrbpcGD0Tj0EWVduLIJycyxBEAWnJaWhpacVLr7yIL7/8HI899gRmHzwbWzZtQmdXV1jMQjJYWFCIww47DD6fD5WVlaiurkZrSws6OjvR2dkJv98fOJeMwSaKsDsd8LjdSExMRGpqCnJycpGcnAyfz4e2tja0tLQEevgGI3myLAdrGSbjzjvvwgMP3Q8ASPIkQxQFyEHxs86k5epaLUZnykD6VHdwAEx7n2J7PCCCSUlJSElOxo4dO3DKSafgsisux/0P3IeCwgJsL9mO1tZWJCYl4qFHHsYvP/+C9es3YPSY0ZAlyfCZVc/IAbvdgebga2AlgOlpqTSNhSBIAIleVMLgkIyFFHIZAEnhQMXldkZcprW1BeFxuWhr/0UhZJbmFmX9P/3jZsVoeBRPq19GluWgWHAUby/B8XOPw/333o+LLroIZWVlaGxshCiK4JyjubkZzc3N4XWdTicKCwphs9sgiiIEUQgmYYT2t3so2O/3w+v1oq6uDtXV1cEEiNAXLxYWqrFjx6Cmpgbnn38+PvviMwBAalIqZDk035JpxMk01qfwOL0IGq1r5ItWSbUh4ZY5R/7IkWhva8PjTz6G1atX45X/vozCUYUoK92BivJKFI4qwIMPPYBjjjkOba2tcHs8lgIbamtnt9vR3NyC+vp6jBgxwnSV1NTkwBdUGvolCBJAgqRw6NJ9npOSEiIu3dnZ2cNns0iGMCv6zKwvB8ajiQVy7XivyZ5xdVlBru0lHLg2UxJT0dTaiBtuugEbNmzAfffdB5vNhpqaGoiiqBK70Hnr7OzUt8AzOyam+osJD7LKcqDm4PgJ4/Hr2l9x+llnoLy8DB5nAmw2W/hxHi62wrqlLuRw4WFgYwfqDuhFksgohNLAECVJgtvtxvix47Fq5Ursv98BeOW/L+PA2QeiorwC5TvKceDsg3DFFZfjnvvuwZRJUyDJsvqlZJq9YAyCKKCrsxOtra2W59btdgYTQMRIh0AQRB9CKVhDUgqp7/FAlEC3K3IEsKury1S0eI/3IJ6lNa3CeIwb59y8k4mZwvKAiKUkpMLO7Fj44kKcf975SEpKQlZ2drCjhdFTcdN9iLRsuAQi59htt93w3crv8Odj/4zy8jIku5PDkUfOrY851ldMn0jDImwhuhPJg5nd48fvhvqGehx15NF4b8l7yMnNARjQ3taOa6+7FtOnTUdZWRkEVWiR698NgkWmvV4vWltaLJ87f0ReoBsI1QAkCBJAYiBIoWgohd19j10QRCf1Pe5DbLbI57StrR2CIESn4zHM/VN+kMecFBJBPgxnDnLe4xizLEtwud1w2d14f+n7OOecc5Hg8WDYsGGQJEklcXqh493/FL+bSyCHJEsYv9t4fPP1Nzhh3ly0tbch2ZMS6HLSkzltFiVqmIFwQ9eFJT615wD8kh+jCgvhdDpx0okn49133kVuXi7q6+uRnpGOK6+6Eg0NDeHIpunmWLcANimG3o3Izh4GcIm+VBIECSAxMJ0wIIWCYA9KYTBCaHer5DAghXaSwl4gKTEx4jJeb1cvRU7i2waPeZu9nKGscycOu80Ol92NTz79GJdcfAkyMjKQlJTUPRzLYSF21o+FfvX7/SgqKsKaX9bilFNPgc/nRZI7uVuMenh8XHkGeTQngJkvxKN7KITf70duXi4SEhNw2vzTsPyT5RiRPwK1NbWYf9p8HHvccSguDmRam142PFCeRpIkdHZ2WR6zx+0CTTEhCBJAYtBKoVMhhR4TKRRJCqOWMY6UFOvyGDKXg8LB4kju4NGtwCIspUjS4BF2gvNoNhjNLvMIo8gy7DYbnHYX3vvwPdx0403IHzkSdrtdN581mjmA2sif3+9HQUEBysrKcOqpp6KjswOJriTIUZZaUiW+8Nhsl5s6HY/W+aI6x5Lfj9zcXDgcDpx68qlYu2YthmUOgyiKOOfcsyFJfvg12cBG1w7nHJLkt3xKh8MRnN8Y6ZUlCIIEkBikUujRSyETqf+nwQcw5xx2hy2imMiybHz6WIRCzhHm4UXUBx6rKcalI+H94YaHx01HWuVgJNAm2PGfF/+Dp5/6P0zYfYJ1hI6HOpqYLyJJEjIyMmC323HB+Reipq4aic7EYPKUtfCpMqE5i+J8cKNpfj08/9G9Ahwcfp8f+SNHorW1FWeefiYaGxoAAMcccwyOPe5YlJSUQBCUfZENrhsOyJJ1VNRut1EZGIIgASSGihSG5xLaPcFkE5JCLaIgRpTFaLNYe/3jlfHYn4/1dM94dJsMLS3LcDsCtRT/cds/sPzj5Rg3blw4KcQqBsq5sXA7HA5kZWXhb9ddj5/X/gSXwx0xasWs5C7+P6n4143hQb/Ph6JxRVj721pc/JdLAl84BIa5J54Iv9cHWeamrwxTnDfrY6G/dYIgASSGkBMKYIKRFLqHthQqDtEse1X5wSkIgkkVFRa1AFh+PJtuh8VuGTz2zURUwQjry1xGoisJAHD11X9FXV0dhg3LiHmuXmAoU0JRURH+t+hVLHrtv7ALdoiCGHleYjQnisd7AozvsKw1bX2gwQgxC0u+3+/H7uMm4LU3XsNjjz4OADjmmD/j0MMORWVFpcm1wsOHp2xRaIRf1V2EIAgSQGKISqHNRAqVcwod3VK4S2YOBqrG+XzWAigIQuDDlfOIZ4FZ3GP1WCynl8XldXE+QXR2FZZAj92D0vLtuP22O5CXlxfomRvDnnDOkZOTg61bt+K2228DADjsDvAozn0vfR+I3QnjfELDGQWCgPzcfNx7z734+aef4fa4cdDsg9BQXw9BFC1fGkGMJIB+UAYwQZAAEoSJFDogiq5gSRqPRgyVNQoHuRSG0z8ZmpqaIy4eqDeHmKJQEbtvMPMVe/3MRjOEHR5L1Iops94hRRiMMcDGbHj9rdfw/nsfYMyYMZAkSS8/in9a2U5LT8MD9z2AhqZ6uB2e6ItImwh34BB47KYHo8Ass8oDjs88OVMJcFpaGhobG3HP3fcAAI46+igUFBaiva3N9LUNtNWznsvq9XrpjY4gSAAJIvInk6pwtegKzye0KcXQNvgLVze3tEZcxuVyGScgMPNfI58Jbroij0bUYjP86F5zle+xmOaxhY7I6QgU1n7kkUfg8/ngcrkibQlAoMj0qNGjsPyT5XjznTdhYzb9vLUojoMxxc6xKE4asxgejmB4jMf7Mpk/6pckjBs3DosXL8abr7+JCbtPwOxDZqMiNAysvVY4h81mg8eqdRyA1tb2YClpSgQhCBJAguiJFNq0UugZlFKoi1AZkJCYaDKfLZIhsLgkgFlshkfITDV7SobefikMtI4xcM7htLnw89qf8b///i8QBZSliBLocDrh9/vxr6f+Ffjd7gweLDM4Whb1PkZ+jJvYO1OfSxZh8yxOGWT6NBlREJCSnIqnnnwKALDffvvB6/PqyztxBlmW4XQ6kZKaankmqmtqu9vAEQRBAkgQfSOFA7zFneLpOzq6Ii7ucjhjkqB4hJBZ3MF7coCxyEjc4qferi3YF/jl/76Chvp6uN3u4NCvdtw30Debc47CggJ8/NHH+GbVN7AJDpWYRXq+XrsYYlqKmf/G4t8OEJC6/PwR+OLrL/DRR8sw98QTkJWZia6uTp08yrIMh8OBxETrntZl5ZVgTFT1WCYIggSQIHpZCjUt7uzaFndBKRwALe5aWtoiLuP2uKP3BR7LmYruUWXUixmE8oy80tg1Wc81kBmJmOK/oSig6MRv63/FW4vfRkHByHAElSEggoF/QWG02eD3+/Hq/14FADjsdv1BMAvZjinQysLzApnZ9Rup/h+L8STFgcw50lMz8K8n/4Xk5GQccughqKmtVW+VB4aM3R43kpOTLLfX1tYePF8UAiQIEkCC6Gcp7G5x59JlHe+sFnftHZ0Rl0lMSgxErwyGJPWi0gPp62GyruFSzOJuxjRDw/q5c8xoOBQGQ7EaWbPZAkkJSz/8CJIkQxSN6y2GMn+/+uprfPrFpxCZGDjPLIrn0eyL2U+zY4vGjxmLcO6ZkaxH54KRMqLzcnPx8bKPsfqH1ZhzxBFoa9V/WfF5fUhJTkZ6eobllVBf30gdggiCBJAgBoITDowWd+3tZgLYHSlJSUmBzWaDHJyAF2s5GIZoh4VZpFMGK9OwnP8XSdBVvhgpAYSZOqZyZp3IRHzx9WdY8ekK5OTkdL/u4edgwfObjK+++goA4LI5g1thKlfTT9GLYGYxJTMz02igpfQixuCjpQ0abJcxiKKAr778ChkZ6bDbbbpt+nw+pKSmIjUt1VoAG5qD2fsEQZAAEsSgksK+aXHX0toR8eM7MysLLrcbskXCSEx1/hiLVguiVM0otsDin/nFTATTaPhXuQdOR2Do/OuvvkJqamp3Pb/Q8C8DkpKS8McfG/HO4rcD4igwtaxFGAaO9+U3joDGaPZWEhfltwSrQXnOOfJGjMC77y5BZWUVxhYVwef3K4a+GXw+L1JSUuGwOyyfrrGxOd6LjCAIEkCCGBhSGOpkEn83Exb+FGxq6YjYsSJn+HCkpqbA5/NFbx49GgrWS5VqzUhDlCwaEdRE/XTDwoohVGa+j2a3A2c4EDH97rsfUFNTA4dDKykcmZmZ+HH1j6ioqYBddKrPjdl5MDgn4aFqw2PQ1gU077yicCvrlzrGeYCR62tzwydMSPDgt19/RW1NNfbYYw+0tarLFvn9ElJSkiP+GVVV19J7CUGQABLEYHdCodf6Hnd2Sigt3WH5fCNG5CErOxudnZ0RHCDe6m+wjApq7zAcioxZBGGkRhGlRj0MzVSyphK34II2wYaf1/2Eb7/5FtnZ2YoEkIAeOp1OrN+wAQDgsNm6BS24PWYhgiyaQtXKdRiL8nVRhudYRKFjkeb2mZyzaArcyDKH3y+hqakZeSPy0KosCM0D9ROHZQ6L+MqVV5AAEgQJIEHsqlIYVd/j7hZ3HBxMdOD7H3623HZaWjpy83LRESlhxHA+nNVcr0jSx2KUPmYarVLLk0lCBNMvbzT8G5UEBn932l0AgDVr1iAhIUHV2cPldKGisgJfrPhcJ47aJ9N1+jAQYrNuIMavEVOfkwhdP8zPr3U18JiSfky+BKSlpWLt2nVobGyEx+VGuM8Ml2GziRiRPyLi30dtXTO9SRAECSBBDCUp1PY99nRnIItOOBwpWP3TbxG3lZuTox4CNpMe7Sc7i0IYmaXVRZjiZ2x8kQpCGw4DG0iUfpssKgnUumVZeTn8fr+qu0daWip+Xfcrfv3jV4jMptpHw8gfs94nQ9k1GtI2P0TTlyCapBtmrv0m9+nv4dBHOpOSkrBt2zZs+H090jLSwwfp9/uRlJSEsWPGWF67W7YWo6NTVmydJgESBAkgQQxZKXQEpNDuQfH2yojrZWVlITqrg0nxYmYpAixK3zOPyFlFrFhMxZPN5tEpnwsG4qodAlaqxq/rfkV1dTVcbld4CNjjSUB5eQUAwGFzqMXPYAg4fG6ZyTljLMIcP5Pzzszkl5k/V1SSbjaHUXvq1NcG12yKMQbJ70d9QwMEIfjxwRk6OjoxPGc4isaNszzKb779HoJo0s6QIAgSQIIYWiIYKkPCUBfF8Fj+yJFwuZyBhBETwYtJ+hiLOFdMp33MwDRMW5hFSAKx+Gm6jmZuHINxJFArcgJEbNq0EZs2bUJyUnfCgmgTUVNTE7gtCobiaDwsypRPYrjfLKpjNTxUmEVQ9XMOlcuZxP9YFDP9OLe8LjgAQRAgyzI4l8P73t7ejhEjRmD48OGqZbVs2VICJtgADuoCQhAkgARBhKiqboy4zIQJuyErO0udCBLFWCGzfFQverHWu7PK1GXaNN+IVhwh+qfYR313EsWTqjKBAbfDBT/3Y8uWrUhMTAxHAP1+P7Zu2aIQchgmkqh/VT9/1FFAxVw//WmxPkfRdl+xivKZy6CVyzONJ6r1rrOzEzm5OdbXF4DSHZXBGprUBYQgSAAJYsjTLRj1TV7U1FhnSY4bV4Rx48ahpblF/4EbaeI/i6Lob6SoUaQs4JAQMQsJZREiY7CI/jH9QZrOCVQaGwMEMfCWV1dbGx7CtNvtaG5qRklxiXpHDRJBmDbiph2WtRJWXdateQ4uMzyXkWXQTJSjFn8Wxbw8xiBoluOcY0yE+X8AsP6PbRYXJ0EQJIAEMQThsh+iLRHvLFlm/UcriCgaNw4dHe3RlX8xKlpsICdm4mgoXUbeEEFU1BVQ1MOUhj8NZUp9n3FvYmaYxKsU7bb2dshcBhiDw+FAQ2MjqoNDwEYSxJh++6r9MZNXA7FVV3TRzP0zLIioVkOj4feIUUAY1zCMMNIfVUkgn8+HtLRUTN1rquV16/f7UVJabXqZEgRBAkgQQxAGDg5BdOKblb/o5VDze0FhgWLCfjRV3GBaJNl0vUgCoZE2vZAYy4peMkx+qlzIIElCV5aFGYqaUdJuR0dHeC2H04mmxiY0NTdFFD/1KTCRP2bR3cNoXZPrQSuFLNrsX8ZiEnzdznGT/TOJFrc0t2D02DHY8097Wh7R8k+/gCQ7wLkEygAmCBJAgiA0H7c7yqrNPprDTJmyB9LS09Hl9ZqUcDGeSmacNWokBywmoei+y3ruGjOIdEUeCtaWUVGLoTZCGH4+zcLKqKDX6w1btd1uQ1tbGzra22Fntm5pNBA/lVyGbzLDoW3dq2uZAKIXPatMasNOb1EIOzOQcGYonmZXp/56am1pwehRo+DxeCyv8ZWrfoQgOtWJJgRBkAASxBA3wPDHbPH2yJ0S9txzT0yaPAlNjY0GH9TG8mEWyTGTumiyhQ1Lk1jInsXh65+HMf1IqCrSZlbzT6GOOpELPCb5pWBrPwZBFOHz+eDz+SCKompZIxlUl4RhehFlBvLMIhR7tjxnzKKaDDOWfBbpGjArDm70Ohh9seg+Dp/fh90m7Bbxmv31983BBBDKACYIEkCCIBSfrAycS+j02vHpii8tl7bb7ZgyZQ+0tLSoarfBwrV0CRzMvFAwjITLQNDMBMZc8izE0KR8jW7OX4S2b2pNU0fvuneZd2+LMXAuBzJbGTOJADLL2oBWt40TSYzq/hmfM51Qw0AKmVUJmgivJ/T1/1iU10FXpxcZw4Zh9sGzI17hP/+y0foCJQiCBJAghqoEclmCzZGE195cariEcvBs0qRJsNls4LKMaOZswSr2Yhi1MpBKo+ih0bCkSUTLSgJZJOEz2EelxJkJmloGA9sQREVPZs5hs9lgs9mg7lBhXEtQJVaMWUcnDcXVaujXav6kyqRhlfwRKeHD+D6D9iPGI8Lh++rq67D33nthzz2t5/99/c0qtHYgMP+P5I8gSAAJgjAWsY2bSk0UsZsDDjoAY8aOQXNzi2kUjVl8+Gt10Gr4OKptwkj2LA7AwCoiCZ9uqJUZD8kaCZsysmW324PJIQyyJMPldsPldEHyy7plddsJ/24sfIayHGHen1khPms5NNm28jxHJX7GshepkRxjDK3NLdh7+t4RL+uPln0Om80T7ABCCSAEQQJIEITicznUEYRja0ltOFPVjOysbBx8yMFoaKg3j/6xCB/8zEQCrLpwGNQOMZS+KCNczDLr1yLqB4NEEKaWMJWwKUTO7XIF5qMFy5ikJCcjMSkRfu5TTx406iii/d2ibI5VMWsDpdK8bNEk1JiJeWRpZ4rrTvFyRU5iCeL3+5GYmIDp06dHvLa/+35NcH1G8/8IggSQIAijT3dZ9gNCCp5f+GrExfc/YP9Aa67Q/DUjqdB+oBvM54oY6bOoxWfVAi7Wn2bPbSZWqrVC8/dCe6ioAaONOSUkJISHjb0+H9LS0pCengEODmY29MsizAOMYvi6N88RzLYf4TGzcj66bwQmbepC69fV1WHqXtOw76x9w48Z5fc2NTVh3e/bA48ymv9HECSABEEYfAgzgHMIogMff7oy4hrTp0/HqNGj0dLcrA0RGW7duHxLT6VCEwWMoiyMlQip2/yyyBm32gxgozmA4fsCSyUlJ0MUAvMAfUEBzMvL7d5xqwigafTR4jYQ07y/mKKmiCLSaJqQYhwpjnT9CIyhoaEBBx50IGyiTaeRSv732tuAmBD4YkMQBAkgQRBGH7Ldw5S/byiNuPywYcNwxFFHoK6uTpfJaZrxaSYJBvdHvx19kWRjMTSaIxitBCKqYWD93L3u+yUpICEjRuTB6+sCY4AsSUhITMDYsWNVex7OwDWMABo8PxBh2Npa6gyFC2ZJN7CILiLqlnRmr711XcNAHcWUlJSosn8/Wf4NBMGuuy4IgiABJAhC9YHLIMs+dPkT8MqiNyOuMmfO4XA4nJD8fpOonfW8vsAPZlqLz2g7+sQMjcZGlcTAVF3X9BKoSQxRtSdj1hE5A1kDY2jvaMfwzByMHz8+UEIn/FQMIwsKAIQaYTDFnDUDGTR8fmZRriaSBMNcgg1FkSm/Mujm/jEj4TMrJhit9IeOjTFUVVXhwAMPwN57WyeAdHZ2YtUP68N7RvP/CIIEkCAIUwMMDAOLNjdef/PjiGvMmDEDe0/fG7W1tbp5aNC0i4skBFZzxtReoi4Zoop8xTqcqd0/Ta/d7riRcp6dRqCshmsZwurh537sscdkFI4qRFtrW/C5GLxeL4YNywAAyJKsqr9nLING4mmWlGIhdvEO/Rp2etEWm7buC81YpGuCGQoiGENLSwuOOPKIiNfmK/99AxI8kGUfzf8jCBJAgiCsFVAIfxCv/W07fD6f5fI2mw3zTjoRTU3NgE4KtNmdFsLHzKRPPQ8Pao+xlg7tk0caBmUGhY7VT9sd4WOK25qInHI1FuroIQTe7oqKipCSkgJJksJC2drSiqKiImRnDEd7R3t3lE+VQBLdULB2yFd7nOrIWuQaicxAds1bypnVHIyi5h/0cmn0FaG5qQm77bYbjjzqqIjX8tvvfkzDvwRBAkgQRJQGCMYEyJIXspCKJ596PuIqRxxxBAoKC9DS0hJhyM88g5dFESU0Ew9lVTwwfbcL5YAlg4UMhqUudB8LRqqYugewkWwZDAUrM4FDPWhHFoyELMtgQvc+NDc3Y8LECZh1wH7wyd7ukjzMIJuY6aOCZlG/7lOokVzDYzeQQWjOja4vMrOO6jIYzgfUlpuJNOwb+ikIAsrLynHMccciKyvT8pqsqqrG6p+3ApzT8C9BkAASBBGVAYb+QAU73np3RcQ1hucMx7yTT0RlRSUEJlgLG2BY0kUngZbbMCjep4lumbYuYwoZNIhy6YOJTN2WTeF0uqFf1RxAdSZwS2sLhmfmYNb+s1BfXx+WkkArOA6P24MZM2YovckwIcQ0K1hto8GHGLT1/ZhBVFAXUjWoygLNYpHF3Fi5mPYEW9YTVNPZ2YnUtFTMO+nEiNfkgmdfgmBPpuFfgiABJAgiegUUwr2Bi0tb8fvvf0RcZ/78+UhOTgoUkI5QygVmUSOrDhNWCSEwXjZyGRPjbFimGYLVR8HMiz0bJW0wJqDL34XZBx2EPfbYA02NTSq7YwJDU3Bo084c6OzsVGf/KqN9MEk0UeynashXk9SiPy9qoTUeCkbEqJ9ZEo+Z0EUVQVQ8JogiSktLccyxx2Dy5MkRr8fX3vwoWGxb11uFIAgSQIIgTAwwMAws+2B3ZeCeB56OuMpuu+2GE048AeU7yiAIQkwf9GppY3pZjCbSxOKVQK0wqSNk6qFRTYIIU/mgZh6gUiADw79/mronRFGEYmvh/9XW1mKffffB4XMOQ0tHCwSTIWXG1B4K3X4aS65Z5I8xTUZvjPLHjKTe7LKKJkHEpLWcz+eDIABnnHVGxGvxo48+QV2jDC77wSDQ8C9BkAASBBG1AYIFIoEAvl65AV6vN+JaF1x4ARwOB7q6ugzkwCoCZBDJikX6oM0Ojj4zWCd8uscBfTSwe96cKvtBEWgLZ/8yhoamRhSNKsJRRx+JyspKCALTjfNKfgnJycnh7FbOoYv0Ma30KfZFNeBsdCxW58Ey49dk3mYMIh5rdBBQJ4IIgojS7dtx7HHHYdasWRGvw8efehGizR3o/UvDvwRBAkgQRAwKGBy6lKUucDEd99z3ZMR1pkyZguNPPAFlpTv0UUAwy/ZuqiWZlfxpVlEUr1bNAzTJCNYP+VoPDRtFA7XixLTDjIpfRUGET/LiqKOPwu4Td0dzUxOUVelCkiiIAsrLK3DAgQegYEQhGpsbIDDN9tRhP/U+hnySmcwBVGYva/v+MmYtf5oTadTTOaKgG0ZzI0WIAz99Xh845/jLJX+JeA1u27YNq3/ZBs4lMCZoKhMSBEECSBBEJAVUiIGIV9/81GLZ7i6sl11+KUS7DV3BeWzRzvHSD90yGPqeJkuVGUqEYglVBq1eAo2GPfWFojXz6QDN74pInEoGGVrampGSlIJjjz8WNTW1EERRnyEcXLapqRGTJk3GWWefCa/f2z23MDRUq0oM1oigSvwAs0QQ3fCvybxAdeYIUxWahq7vsNE8QPWXCVgInqFgKub+lRSX4NjjjsW+++5ret2FuPOex2F3poLLEkX/CIIEkCCI+BRQCEcB272J+PdzL5vLYpA99tgD8+efjO3btwf63RotGaGWnJEkWsmiWWkYo4igYfarVVQQ5pE1pXCpSkYHZdBmE9HS3oqT5p2M2bNno6qyUiGK3dsN3RYEEZWVlTj++OMxumAMmlqalaUFlTFDnQiqxY/pZBVm2b8WkT+V3kWK1unmAUaf+GF1DXi7vBAE4NLLLjXQPvXCDQ31+HDZ94Hxc0r+IAgSQIIg4jbA8Ae7IDrxxNOvmS+rCMZcfc1fkZiUhNbWFjBBiDhvz7QsjEm3iLh+Qi9EqtIqBvKkqgNoEFFTzb3TiZ2AxqYmpCWn4exzzwr2SxagKe6i+scYQ2VlJabuNRXnnX8e2jvbNI9ro33GQ9K65cPla6znOGoFLuLQbjRzM60SP2A9PUC02bBl82bMP20+ZsycYaJ93fzztgch2NMgy77A8C8j+SMIEkCCIOI1QCBYGLqx1YWXX3kdFp/kAIAxY8bgkksvRnFxSWAem1EiiPa+aIaCo00GsYouaSOBYCZRNGgigzAUQe3cutA/QWBo62jFBRdeiFn7z0J5RQUEgelrRCsiebIsI39kPjZv2oI333gDbqdHH+nTDUcrxE8le2opZGaFobXDw4pD7U35s44e6q8jxhhamluQnpGOv17z14hXalNTE9545wuK/hEECSBBEL2igMFkEM5liDY37n/4xajWu+LKKzB+t3Goqa6BEIoCgsVVygVGpWEMJIIxZr1NgxIx2jmAajmELoHCaB6gNjvYZrOhrLIMuxVNwOVXXIYdpTsgCmI4osg0Ub+AKHG4XC6kp6fhztvvwC/rfkFGWjp0kT4jEWSaKCTUyR/mGc9QR/6UtQt7+DqxKFr7mRX5Ds3927JlM6686koUjRsX8Xr7+z/uhmBLhSx7FckfBEGQABIEEa8CBj6UBRGy1IXmjgQ8/czCiGulpKTg9jtvR1V1NSS/FEXUThsC0u6BuqWb9jFtCzGjyJNWQlWRLpPMWXWEzXgeoDI5QxAEtLW3AQBuu+M2jBgxAg31DZrl9cPLsixj3PgivLjwRbz035eQlZEFDq7pQqKUPoV0QjEcrUtGMR8G1vVAZkzXdcR8rp9h4E79ymh6Iytfa6uSMoIoomzHDkzbaxouvfwyxbNww2uttrYWb777NTjnQGiYnfyPIEgACYLooQKGo4AcgujEI0+8FviwjcBxxx2HufNOwLZt28IFkA02rtY6ZiZqzEAguoeJlRnA3doG4+FGpi2wrM+kNRpuZWbzAJVz8sBQ31iHyy6+DKfMPxkbN26EzW6zGPoF/H4/xo4dizW/rMF1110Hl8MFp9MJDnWSCIPJsLNJ55JwkolyGJhpknCZUf9lk2xfzXxJ816/mlmXugihkcp3r+v1etHU1IS77r4LCQmeiNfZ5VfeBNGeBh6a+0fDvwRBAkgQRK8oIEJRQMnfCS9Px03/uCeqNe+5924kJyehsb4BTBTjnlemFAvTTGDtvD2jeWzKSJlGUMySQWA0704hV6HlbTY7SitKsfe06bjz7jtRXlYOWZY1NffU50eSJOTm5sDr8+LC8y9EQ1MDsjOzA+tBGzXUZxx3e6wmWqkaBoZGEKGKbhq2dbMYotWW4ol13p/VT8Fmw8Y/NuL8C87HoYcdanAdqlm16nt8+uX6YNkXiv4RBAkgQRC9q4DBKGDo539f+wK1tbUR1ysoKMTtd96O7du3g0uSQamWyGVG1HJiISnaeXu64U31fVqhVLqRTgSZcSZuKKJmt9tQUlqM9NR0/Gfh83C7XahvqA8WxGaK+Yndw7+yLCMtPQ0ZGRm4+KKL8cNPPyA/dyQkWdKXizGI/hmWgTGa86dpfaeK6GnOu+E8SmU01ux1ikX+zLJ+RREVZeUYO3YMbr39NvWFZBJw/stl/4DdmQKZU/SPIEgACYLoCwUM1gUMRAFFZzbmzb8sqjXPPe9cHH/i8di6ZStEm2gSzTEq/GwggSxyZrBWdNQ15tTb0iY9mIqgtqcuugXMZrOjvKICjAn436v/w6TJk7Bly1bYbfbuxA/NP1mWkZycjLy8PPzt2r/h1ddfRW52btB09OVhrOoNMrOyMEzdrc44wQOR5wAqy+VELX8wn+upTQAPrt/Z1YWG+no8/OjDyMhIN7o8VPzf08+jqo5DlrxgTIRhBxiCIEgACYLosQMGhUCELPuwuaQLS95bGtWqjz72KIZlDkNNVTUEmxhlUWH1c0dbHoZpMn5Vw79ME4kymD9oJYLKJIuQ/FVVVaLL14n//XcRDp9zODZs2BCc98cMnUSWA31/80fm487b78TDjz2MrIxs2Gx2xfMZFZ026DjCmGlXEu0BGEf4jOslmg7/RlPrz2isWzfXU72OIIr4Y8MfuPyqKzDniDnBZc3nmba3t+Peh16EaPcEI9Mi1f0jiMH0cVKw+xmcTgNBDCI4B+cSZNkH0eYGkyqxbcMnUa364YdLcdLceRg9ejQcTie4LAc+4jmP7id48P+Bn+HbIVUILx/4Dw/9DD6mX46rNSP8PPrn1JwCAMFyL2U70OnrxCsvvYLTzzwdmzZuApe56SikJElITU1FTm4Obrn5Ftx1z10Ylp6JRE8CJFkOrMfNAlma0i3K+wycS5uBq5I8q3l/RkWgDe/Tyx+Lo4C0zW7H5k2bMWnSRCz/fDkcdkfEa2nuyRfhx1/bIPnawJgYTJgBOJfBuQxwOZioRB8xBDEQoQggQQy6r22BwtBMsEHyd0AWMnHO+VdHtepRRx2Ja667Fhs3blJHhWKoEReWHsvh4KCKqDp96MVEGQ3TlYtR1uwziAjabSK2Fm+BzGW8+fqbOP3M07Fl8xZwzsGE7vmGyv/5/RIyM7OQk5uD66+7ISB/acOQmJAImcuqjF1oEkCsIn3qYV5oIn7Q1UBkzOjcaBNloB96V0YAoR/2jUf+RFFETU0NnE4Hnn52QVTy98nyFfjup0pwLkEQHRBsTtjsbog2N0SbBzabB6LNE/zdBUF0gAk2RScWgiB2+kcJRQAJYjDCwbkMWfZBYDb4vC147cWbsf+sfaJa++gjj8Y3X32Dot3GQfL5g1E14wid8c/uyF84iqdaP7iPRusa3FY+r/Ht7u0JggBJ8qOktAQjR+Tj5ZdfxgEHHYgtm7dAlmTVMGRgNl9gPb/fj5EjR8LpdOKSiy/Bc/95DlkZ2UhISIAsS1Zvk/rfzKKDqhHYKKJ/Brf1Mm0Q2YNR5A9RZXF3zw8MJBN1ebuwZdNmvLzoZcw7aV7Ea0eSJIyffBT8LAuSvwOCYA/M/zMd/uXBiCBXRwdBkUKCIAEkCCJ2BQx+eIaGgkW5ElvWRzcUXFlZidkHzkZTYxPyRoyA5PdHlrUIw8LKdcyHfBViaLANrjY+3RCwKIqoq69HfWMdDj90Dp57/t/IH5mPTRs3KVrKcZVKhIaDi4qKUFNdg7POPgsfLfsIecPz4HA4IcuysfJFE6jS1tvTCp2JCHb/MB7e1QmftpizNnIbQf6MEnAExsA5sG7tWvz9lr/j9jtuj+raOeXUi7FqTQtkqSsY1RNVRa9j+QKjFEMEf+fovk0QRN9BQ8AEMVi/vWmGgv0sC/NO+UtU6w4fPhwvvvwifD4f6uvqINpslm3brH5qy6OEXMOonIlZNmv30Kay5Ev37DpBDMwx27R1EzraO3DHbXdg6UdLkZGRgY1/bAy0uhMUhZGD25IlCUnJSSgaV4SvvvwS+8/aHx8t+wiFIwrgcDjAuWxYGNrUZZhyOFhRJVBzHzTnUN/OTtEDWZlUYjGUa5rwARZlr1/NayEI2LBhA049/VSd/JlFBRYvXoJvVgeGfgOJH0Ic8hfcFyZCEOwQRAdEmyvwJSY8jBz4J4jOQIQxPHxMEERvIaZm7nEbnQaCGJQKGP585whES0rLmpGVIWCPPSZGXDsvLw+7T9wdL7/4Mhx2O1xudyBqp4lgWcofY8bFog1q3unKvUB/v3ZeHBMCglFZUYHq2irsv98BWPjCf3Dm2WeiuqYGtTU1sNls6jZvYMEhRYbRY8bA43HjwQcexDlnn4v6hgaMKhgdOGecq/vbKdtyGFihWvhgcL9meZWcmXf5MEwEMSnhopvzZzJfMFJRadFmw6aNmzB9+l548+23grUSNa+5hvr6ehx3yt9gc2RAlrwQgtG/Xiv7Eq5zKYIJtoAcCnYw0Rb83aaIOArddSZp6Jgg4vuToyFgghjkqLKCXfB1VuGHr15Ebm5uVKs/88wzuPqKv2L06FFwezyQJSmm4eBwxEhzX1iylFEli6Hg7h8cjAUkrrqmGk0tTSgaMw6XX3EZLr30UjAmYPv2EsgyhyAwqDvicUiShGHDMpGWnoqfVv+Em2/+Bz76eCky0oYhLS0Nkt8fk5SEpNhQkJjZ/EB1BFNdd089ly9Sli+gbu1mmGhjWTYGmoxfG4q3FSMnZzg+/vQTZGdnd79AFi43Y9YJqGpIhORrBxPtcQ799tL1rpo/qL4dnnNIEAQJIEHs4gYIHpRALvkg2t1IdNbj158+jHoLd911N+667U4UjR8Hp9MBWTIvD6OTubCEKqTOUgLVyynfgATG0NHZiarKSnh9PkzYbTecfMrJuOgvF2F4znBUV1WjpaUFgiDqzoEkyUhJSUZmViaqq2rwf//6Fx566GG0d7ShcOQoCKJgON/P8I3RzId0cqeRRcBc/FSiprhtJmw6+WOG3VuA6CN/NpsNpTt2wO1y4aNPPsK4ceOiOh+XXXkT3vtkG3ioQ8pAy+iNIIWBeYX0UUcQJIAEsUtKoAwuS+HSHHtPTsSbrz1ruY7yA/y6a6/DU0/8C+PHj4PNbtfVCBQYgyTL6GjvgCzL8Hjc4UgdN8z6Df9HnyASksRghK29vR1NTU1oam1CVkY2Jk2ahGOOOwanzp+P7JxsNDc1o66uLjzkyXm3XHIAqSmpSM9IQ21NHd566y08+fgT+G3Db8jMyEJqamowqskBztR7ER5D593CFtq4QSYIsxQ+A+nTyZ4+U9gwAxjKcjPWUoco77PZbCgvLwfnHO+89w723nvvqK6sN996B1fdsBCi3Q0u+6PI+h0oTiiHxZCkkCBIAAliF3bA0FCwH4wJ4FzCFRccgOv/dmXUm7ji8ivw72eew/jx42C32yEHJZDLMpggwO1yITUtFQ67A7+vX4/a2lqIggCn0wmn0wmHw9E9n0whVzz4T5IkdHV1ocvrhberC+3t7ZBlGfn5+SgoKMCUP03BCXPnYu+994Lb40ZTYxMaGxu7jSn4biXLMlwuF4ZlDoPdbkfp9lJ89NFHeHbBs1j982okepKQM3x4MDlZNp0mxqOJYUUaBtaKl5HQGUQODcu4aB/TiJyZOEaKCgbkrwKS5MMbb72JWfvPiup62LJlCw44/BLYncGSL6IjkHg0SBMyukvQcIUUSt0lakgKCRJAgiAG8wecLPsgCHb4uprwn6f/iiPmHBb1Ni675DL857n/oGjcODgc3RIYGj5NS0vDjBnTkZCQgLa2Nvj8fpTt2IGtW7aidMcOdHV2wu/3Q5IkyDIHY4AgiLDZRLjdbqSnpyMtPQ3JSckYnpODqdOmYr/99sWoUaOQlp4WmPtXVY2uri6EVCbwgc3hcruRkpICp8uJ5qZm/P777/h0+adYtGgR1m9YjwR3AoYPHw4mCODB/eXQ+WPsb5SqW9xQ2lTSiyjq/1kO92oeNxQ+vegZSWKgW0o5ZFnCq6+/igMPOjAqAW5ra8Ofps+FD1nw+9oCxZx31ry/fpFCzVxCZd1CSjQhSAAJghjgH2fh+YCy5IPN5oavqwpffvw0xowZG/VWrrryKjzzf89g7LgiuFwuyJIEBId7W1taIUl+jB07FuN3G49ZB+yPorFjkZSUBEEUUFFegfLycjQ0NKKlpQXgHE6XCynJycjMzETeiDykpachMSERaWlpAAN8Xh+amprQ1dUFWQ4UcxbFgDC63C64XC4AQHVVNbZt24a1a9dh8VtvYfXqH1FfX4fUlFRkZGSExU+TF6K9oddB1a8h6+JG6qcb2jWURIaItQD1XeMM5vqZ1QKMcvjXZrOhdHspRJuI/73+P+y///5RXwMz9jsBVQ0J8Ps7ghm44hDp5BH4GzKqS6iqW0hSSJAAEgQx8D7AAvMBZdkPm90NQarG6m9fRXp6etRbuenGm/D4o49jZEEBkhITIQWzgwPT5Dg6OztRV1cHMIbc3FxMmjgRhx9xOGbMnImc4cORnJIc8TlkSQ4In8AgCqLKLbo6u1BRXo6a2lpUVVZh9erV+OKLL7B502ZUVVXBbrcjKysLDqczGMnhaulj3HLo1/AN0fLdsnsJwyQRneSplzcSP6adRxdXhxAYJpGINhu2bd2GtLRULHp1EfaevnfUr/3Rx52NXzd6Icu+QNFowQ4GYcDP++s3KeQyAJn6HhMkgARBDHAJtLmR4KjHz9+/A4fDAXMtUn/AP/TgQ7j9n7cjKzsL6RkZ4RIq4UxfxiDLMro6u9DY2Ijm5mYkJychLS0d6RnpGDNmNEaPGYOR+fnIzs6GOyEBdrsNdtEGQRACQ8uSH36/BJ/Ph9a2VpSXlWPHjh3Ytm0bNm/egtraWjQ2NKCpqRlJSUlITU2Bw+kMJ6B07z7XBfY40ONKcczsXmbwuIn0GW1LO89PtSZD9NnCmvsExsAEhk0bN2HU6FF47Y3XMH78eItXWc25F/wVn35dHi6l0uv1/kgKCYIEkCCIvvx8CpbGkP3BzGAXslLa8MPKd2LazMsvvYzrrrkONpsNuXl5gYxak/IwQKDnrtfrRWdnJ1paWtDV1QWb3Q6P2w2HwwGb3Q5REAOdOxCYWyj5/fD5fPB2daGtrR0+vw9OpxOJiYlwuVywOxwQRVFxXOrjVMqNodciJIcRdDCKHnCWyR4RpC/Ug1e7vmWkT3nbVBQDjwuCAL9fwsY//sCs/Wfhlf+9gqysrKhf62v+diveWPJbMIlIhiDYB3XSx8764kV9jwkSQIIgdr4EBjODAQ5BdCA/y4evP38jps189tlnuOQvl6C6qhqjRo8OtOflsqY2oKKfr+p2IItYkuXAMLIshxNLujuPMAgCgyAIgbZujAXX58Y+pxQ73cdpMMalEUNmIInKoVxuJnhqe4sogkaPMc3jRhnCyrUZUz+nXggVa4S6e4giWlpbUVJcjNNOPxXPPvfvbmmOgn/cei9e+N/3EAQHOPeDCfZdMuljp30RC4uhZFiihiBIAAmC6OXPn1BmcFACBTtG5XF8vvzVmLazbds2XHj+hVj57UqMHjMGTqdT0TUkrIC6AtEqTePQdxXRLQd9KQ7OTWMmVtFA03ifsqyLQYkXE/0zlD0zaWS6TBCN0FmKoEkiiFIEFUIo2myoqKhAW0srbvj7Dbjxphtjem1vu/0BPPfKtxBsLsiSD4JoD/f6JfnraynUDBsrStQQBAkgQRC9JIE+AIAg2FGQI+HLFa/HtB2/5MfVV1yNF194EcMyMzFs2DBIfqk7UmfUNk4reCayZ7VetDIIRBgGjundkUUng9r7GTOUPtV6VuVgLBJBtLeZIIBzjq1btiIzcxgefvQhHHvccTEd5jXX/ROvv7s2KH/eYLkXkr+BJYXK7GOCIAEkCCL6T5fwhHWlBGYkt+OrFYuQkJAQ09aef+553Hn7HWhubkVBYQFEQVAP61rIXqSoH7cSvTiE0EgOrWYCxqo8zEwUTeYGGncIgb40DLNuGyeKIpqam7FjeykOPvRgPPV/T6GwsDCmff/Lpdfjg+VbIAi2QO1Ikr/BI4VUuJogASQIIi4J5ByCzQmPvQGff/wCsrOzY9raunXrcP111+Prr77B8OHZSE1NgyRLUfUNVgmZarluTTNdXrOcmeb19ueicXRPLXOGEmklfVpR1GYRM/1tQRAAzlFSsh0OhwOXX3kZ/n7z32M+nvmnX4pvVteAMQZZlmjYd9A4IbW4I0gACYLooQRyLkO0BeoEvr/4MUycODHmLd537/146vEn0dHZgZEFmmigifwp5wSay5/mcdP79I/1z7un2TzA7iFdbiZ2umFfjRgyIwlkEEUBTU3NKCsvw4wZ03HPffdg5syZ4fMRjbZJkoTDjjwDm7d3iwMj+dsFpFDb4o6kkLBGTM3c4zY6DQQxZL7zBX2ChUt7yHIXmC0FL7z8JopGZ2L8+KKYtjhr/1k4cPaB2LR5M3756WdwAAmJifr5aiGZUSU3sO7HQ/8JL88Cw6uK9ZlyHdX96sdU/9ADp2HG29Q9t+qx7uML3w+Tc9B94IrH1OeDARAFAZIkY1vxNgiM4YqrrsDCFxZixIgRBgJqTnV1NfY/5DSU1wQyfQFO8rcr/FUzFnwNRTDBFijcLdgCNRxFW/dt5etMLzUJIAkgQQxlCQz8k6Uu2OwpePe9LyD56jFrvxlRhh4CnyW5ubk4/fTTkJCYgF9++QXF24rh9rjhdDq7F1KIXaj0i1qK9L93y5BWsBSZsEZixtRyppTJaP4xQ8HUy55eBpWP6ddhmuMJnwNmfH4CRZ0FVFZWoqa6GrNnH4QF/16A+afOj/lVX736Jxx+zKXo8KVBkryBfQmXeiH525WlUAgJoGAP/gxJYfC1Z0xfn5LY9a8RGgImiKFL9zCRFEgCEByQpS4cuM8I/Pelp+LaZllZGe6+6x68s/htdHZ2YcSIEXA47ZAl2Tzhw2Q4OLaCz/pqgFbSql4oWArGZBzVsPVb6BGj2oCGHUG092mzgxXSGJTF+oYG1FTXYMLuu+Gyyy/D2eecHddr8syzC3HbvYvgcA2DJHWCsYAQBIo8U52/IfwOQN1MSAAJghjCFhjsGBKQwFBEKDO1C4tffRwFhQVxbfabb77Bow8/ii8+/wIAQ25eLuw2G2RZ1ome6e9W8hdtB5C4m8EF1wt1EDERQ9UtrQwaJYcw41ZxoccEgaGpqRlVFZXIG5GH004/Fddcd23Mmdohzjn/r/jkiy0Q7R7IUldgeJCJJH8ESSEJIAkgQRDdrau47APnHKLNBamrCg/cdTFOO/WkuLe8ZMkSPPv0s1i1ahUYE5CTkwOHww6Zy92Bv6gFzyIJxCIzONY3OfOIX/BRZiaCiDL6pxa/0BBwU1MTqquqkJOTg2OOOwZXXX0V8vPz4zrvW7ZswcmnX4uaRmfwtfVDEBzBIT9q70bE/v5ALe5IAAmC2OUlUAKX/RBsTvi9LZgzezz+/fQDsNltcW/9rbcW48WFL+D7776H1+vD8OHD4fG4IXOuyRTuVjYj8dNLIoNxSziNAvIojE8hZlFJYfhOZtj0I5Tc0Z0NrJZAxhg456irr0dDfQPy80fgyKOOwCWXXYoxY8bEfa6fefZF3HH/y7A5MiFJXYG5hqFkDwhRdT4hiGjfL8JFqlVZx9TNhASQIIhB9qbOVfMCGQtkDya7W7HgqZsxa799e/QMSz9cipdfehmrVq5CbV0dMtLTkZqaBkEQwh8YkYd51ZFA3SBvDCUvtL2Brd8xzeVQE+4zj/4F5/d1dnaiproGXp8Xu40fjzlHzsH5F5yPkSNHxn1ua2trcd5FN+DHtbUQ7W7I/q7ghH+RMn2Jfnj7oBZ3JIAEQQxqCQz8vzsSyCFDFF3o6qjFySfMxMMP/BN2u71Hz/Lzzz/jvy//F998/Q02btwIxgQMGzYMngRPQOh4lFFAC+HryZubNk/ELPJnKo+qxwLZy35JQmNjIxoaGpCeloap06biz8f8GSedfBKSkpJ6dD5f+e/ruOXO5yCx9MBrxiWa70cMcCmkFnckgARBDEgR1A4JM9EGcCDF044H7rkaRx15WI+fpbmlGUveWYL333sfa9asRUV5OZwuF9LS0uBxu8PDpNHM+TPNDg5F4aKJDCrDeaHlNaKnnx9o3u/X7/ejubkFjY0NcDgcKBo3DvvsOxOnzD8Fe+21V4/P35YtW3DVdXfjp7XVsDkSg1E/IRC5FcTgkC9I/ojBIYVcDr/3ECSABEHsVAnsHroJ9BHmEEQnfF2NmDV9FO6/528YPXp0rzzbpk2b8f577+GrL7/CHxv+QHl5OWyiDUkpyUhMSOyeg2g2NBxlJFA15c/itv4dMyiRzKggDAs6JkdnZydamlvQ2toKt9uN0WNGY489JuOoPx+FQw45BB6Pp8fnqqurC3fe/SgW/nc5RHsGOJfAZSlQ+JfRkC+xa0khdTMhASQIYie/OYejgYIIxkTIvjqcMX82br7xyh4PY6plcBM+Xf4pvv3mW2zZvAUlJSVoa22Dw+VEgscDt8cDh90eHNrUC59p8Zfwg5rZf8y6mRozkUFJktHZ2Yn29na0t7eDcxnZ2dkoHFWISZMm4dDDD8W+++2LpMTeOzeL/vcG7nngBTS1ucAEEbLkDb4eNkWWLw35EoP9bYf6HpMAEgQxEN6O1fXBQvPMRAe4LMHtaMMVl8zDJX85BzabrVefubGxAT+u/gnfrvwWv//6O8p2lKG8vBwNDY0A57A7HXA6nHA6HXA4HLDZbOFiyr2BzDlkWYbP64PX60VXVxe6urrg9/vhcjmRlZ2N3NwcFBYWYu+998K+s/bDbrvt1uuvwIoVX+C2u/8Pm4vbAsO9khcAFEWdKcuXGApSSH2PSQAJgtgZ78CqoRpZDvSUFQQHJKkTmakyrrr8NJx95skQBLFPdqGpqQkbN27EurXrsGHDBpRuL0VdXR3q6xvQ0NCAttZW+HzB/RJFiIIIQRQgCgIEobsGHlNM9ePg4DKHLEuQJFnxU4YgCHC5nEhJSUFaWhrSM9KRnZ2FsUVFmDhxInafuDsKRxVC6KPaet+sXIn7Hvg3Vv9SBrszNZyYE57nFxzqpagfMbSlUDOXUFm3kGoUkgASBNErb7nhwq/hYWHuB8AgCHZI/nZkZwi49C8n4YzT5sHlcvX5HnV0dqK2pgY7duzAjh07UF5ejpqqGtQ31KOluQVdXV3o7OiE1+eFJEmQ5UDxWgYGJjAIggC7zQaH0wmXywW3243UtDRkZKRj+PDhyB2Ri/z8kcgZPhwZGRn9cpY//+IrPPrEi/juxxI4XGnhyCsTuuf50XAvQZi8PxnUJVTVLRziUkgCSBBE773RcgmcSyoRTE2Scc4ZR+GsM+YhOzt7p+6tLEvw+Xzw+0MCGPAmgTGIogCbzd7j8jY9xe/z4+1338czz72BXzfUwOFK7RY/JgblTwhmGVOGL0HE915FLe5IAAmC6IX3Vq6q6RXKSA30trVDkjrhFDtwzJEzcObpx2Ovvab11nt68J1s8J/C0tJSvP7Ge3jl1Y9QVeuHzZEUPI8h8RM18/xI/AiCpJAEkCCIAfBmGiogrRJBLgEcEER7YF6drxmTdsvGyScejmP+fDiGDx++M/Z0QKhTR0cHPv5kBd5ZshwrvvwVfu6BKLoC5Xa4HM60JvEjiP6UwqHR95gEkCCIfhBBOSiCcngI0+9rh8vuxX4zd8Ofj5qNQw85oN/m1u1M/H4/vvr6W3z40Rf4cNkq1DdKsDkSwZgAWfIFKtKwkPgxEj+C2OlvacrENx58L+ODvu8xCSBBEH0sglxTtkECl+XA3DvBDs5l+H1tSHDLmDVzdxx0wAwcdOBMFBYW9vnu9ZdPNTY04qtvVuLLr37AJ5+tRmV1B2yORAiCIxjt40HZUxRwpjl+BDFIpHBw9j0mASQIol9kUJk1HPoWHXrDDM0V5FyC5OuATfRiwrhcHDhrT/xpykRMn74nhg3LHDRH29XVhTVr1uKH1Wux8rs1+P7HjWhu47DZ3BBEZ6B0DpcV0b5gNi+Y4ieJH0HsOlI48PoekwASBLFTRDDwZsl15RkCUmQDGCD7OyH5O5HoYZgwfgSmT5uIceNGYY/JEzB69Gg4nc4BcVSlpaVYs+53/PHHFqxZ+wd+WbcFNXWdYIITos0dGN6V/YrjE8MRvlC0j+r4EcQQk8KdXLiaBJAgiJ0igoH3RjMZDNwOvEuxQAYsB2SpC7LUBUHwIyPNjVEF2RhfNBL5I3KQlzcco0eNRF5uLlJTU2F3OHrxPZyjqakJVVVV2LatBDvKKlFWXoUNfxRja3EFKqub0eUFBNEF0eYEY7ZggWw5ONTMVL15VdJH0T6CGGJOODBa3JEAEgQxQGWQa4ZNut+qQsOmnHPIshdc8kGWfWBMgsclIDnJjfTUBAzLTENWZhqSExOQmJQQaBVnt8Fmt8Fus0EQBEhSd8cPr9cHr9eH1rZ2NLe0ob6+GVVVtWhoakdDYwvaO2T4/IG5i4JohyA6g/uh7TYQiuYp5/Mxkj6CICyksH9b3JEAEgQxcGUw8ItOCFVDyd1vZ+E5dAG/YuF6hPoJ2vp1Ay4mBHsIC4ryK2K4p7BO9MKJJN3dOLp/CiFbVdxP0kcQRKxSqC6tpc5Ajl/hbHSKCYIYOLCgM7FuIWQIzp3jYBDDQsiCcqiWQUWSSUjSQtm1EHXPYyWhoduc+8F5KHIH4767oQifUvgoykcQRE/eDcPJYQZS2Ast7kgACYIYdELIQuVlWOCNjgW/BavFUC10PFiWJpqnDMuc8q03uA9q0YNG9kj4CILoTymMv5sJCSBBEINOCNWSBoUIhsRQLX/hNSMNlzBmLaIkegRBDLD3RMZYXFJIAkgQxK4rhrrFePTbIgiC2KWkUN2diQSQIIihJ4oEQRBDTgpFKAcxBDopBEEQBEEQQwsSQIIgCIIgCBJAgiAIgiAIggSQIAiCIAiCIAEkCIIgCIIgSAAJgiAIgiAIEkCCIAiCIAiCBJAgCIIgCIIgASQIgiAIgiBIAAmCIAiCIAgSQIIgCIIgCIIEkCAIgiAIgiABJAiCIAiCIEgACYIgCIIgCBJAgiAIgiAIEkCCIAiCIAiCBJAgCIIgCIIgASQIgiAIgiBIAAmCIAiCIAgSQIIgCIIgCIIEkCAIgiAIgiABJAiCIAiCIEgACYIgCIIgCBJAgiAIgiAIggSQIAiCIAiCIAEkCIIgCIIgSAAJgiAIgiAIEkCCIAiCIAiCBJAgCIIgCIIEkCAIgiAIgtjF+f8BAGDNaBEu7FjPAAAAAElFTkSuQmCC;" vertex="1" parent="1">
          <mxGeometry x="20" y="219.87" width="130" height="73.13" as="geometry" />
        </mxCell>
      </root>
    </mxGraphModel>
  </diagram>
</mxfile>
